<svg width="851" height="272" viewBox="0 0 851 272" fill="none" xmlns="http://www.w3.org/2000/svg">
<path d="M22.3243 86.4482L21.3793 83.6552C21.3093 83.4778 21.2346 83.2702 21.1553 83.0322C21.0759 82.7895 20.9966 82.5282 20.9173 82.2482C20.8473 82.5328 20.7726 82.7965 20.6933 83.0392C20.6139 83.2818 20.5393 83.4918 20.4693 83.6692L19.5313 86.4482H22.3243ZM26.0833 90.3472H24.2493C24.0439 90.3472 23.8783 90.3005 23.7523 90.2072C23.6263 90.1092 23.5306 89.9855 23.4653 89.8362L22.8633 88.0582H18.9853L18.3833 89.8362C18.3319 89.9668 18.2386 90.0858 18.1033 90.1932C17.9726 90.2958 17.8093 90.3472 17.6133 90.3472H15.7653L19.7133 80.1482H22.1353L26.0833 90.3472ZM28.6374 83.8722C28.7774 83.7415 28.9221 83.6202 29.0714 83.5082C29.2207 83.3962 29.3794 83.3028 29.5474 83.2282C29.7201 83.1488 29.9044 83.0882 30.1004 83.0462C30.3011 82.9995 30.5181 82.9762 30.7514 82.9762C31.1481 82.9762 31.4981 83.0462 31.8014 83.1862C32.1094 83.3215 32.3684 83.5128 32.5784 83.7602C32.7884 84.0028 32.9471 84.2945 33.0544 84.6352C33.1617 84.9712 33.2154 85.3375 33.2154 85.7342V90.3472H31.0454V85.7342C31.0454 85.3795 30.9637 85.1042 30.8004 84.9082C30.6371 84.7075 30.3967 84.6072 30.0794 84.6072C29.8414 84.6072 29.6174 84.6585 29.4074 84.7612C29.2021 84.8592 29.0014 84.9945 28.8054 85.1672V90.3472H26.6354V83.0882H27.9794C28.2501 83.0882 28.4274 83.2095 28.5114 83.4522L28.6374 83.8722ZM39.0228 85.0342C38.8594 84.8522 38.6821 84.7262 38.4908 84.6562C38.2994 84.5815 38.0988 84.5442 37.8888 84.5442C37.6881 84.5442 37.5038 84.5838 37.3358 84.6632C37.1678 84.7425 37.0208 84.8708 36.8948 85.0482C36.7734 85.2208 36.6778 85.4472 36.6078 85.7272C36.5378 86.0072 36.5028 86.3455 36.5028 86.7422C36.5028 87.1248 36.5308 87.4468 36.5868 87.7082C36.6428 87.9695 36.7198 88.1818 36.8178 88.3452C36.9204 88.5038 37.0418 88.6182 37.1818 88.6882C37.3218 88.7582 37.4781 88.7932 37.6508 88.7932C37.8094 88.7932 37.9518 88.7792 38.0778 88.7512C38.2084 88.7185 38.3274 88.6742 38.4348 88.6182C38.5421 88.5622 38.6424 88.4922 38.7358 88.4082C38.8338 88.3195 38.9294 88.2192 39.0228 88.1072V85.0342ZM41.1928 79.8682V90.3472H39.8488C39.5781 90.3472 39.4008 90.2258 39.3168 89.9832L39.1488 89.4302C39.0041 89.5842 38.8524 89.7242 38.6938 89.8502C38.5351 89.9762 38.3624 90.0858 38.1758 90.1792C37.9938 90.2678 37.7954 90.3355 37.5808 90.3822C37.3708 90.4335 37.1421 90.4592 36.8948 90.4592C36.5168 90.4592 36.1668 90.3752 35.8448 90.2072C35.5228 90.0392 35.2451 89.7965 35.0118 89.4792C34.7784 89.1618 34.5941 88.7745 34.4588 88.3172C34.3281 87.8552 34.2628 87.3302 34.2628 86.7422C34.2628 86.2008 34.3374 85.6992 34.4868 85.2372C34.6361 84.7705 34.8461 84.3692 35.1168 84.0332C35.3921 83.6925 35.7211 83.4265 36.1038 83.2352C36.4864 83.0438 36.9088 82.9482 37.3708 82.9482C37.7488 82.9482 38.0661 83.0018 38.3228 83.1092C38.5794 83.2165 38.8128 83.3612 39.0228 83.5432V79.8682H41.1928ZM44.6888 84.2082C44.9128 83.8162 45.1695 83.5082 45.4588 83.2842C45.7528 83.0602 46.0888 82.9482 46.4668 82.9482C46.7935 82.9482 47.0595 83.0252 47.2648 83.1792L47.1248 84.7752C47.1015 84.8778 47.0618 84.9478 47.0058 84.9852C46.9545 85.0225 46.8822 85.0412 46.7888 85.0412C46.7515 85.0412 46.7025 85.0388 46.6418 85.0342C46.5812 85.0295 46.5182 85.0248 46.4528 85.0202C46.3875 85.0108 46.3198 85.0038 46.2498 84.9992C46.1845 84.9898 46.1238 84.9852 46.0678 84.9852C45.7505 84.9852 45.4962 85.0692 45.3048 85.2372C45.1182 85.4052 44.9595 85.6385 44.8288 85.9372V90.3472H42.6588V83.0882H43.9468C44.0542 83.0882 44.1428 83.0975 44.2128 83.1162C44.2875 83.1348 44.3482 83.1652 44.3948 83.2072C44.4462 83.2445 44.4835 83.2958 44.5068 83.3612C44.5348 83.4265 44.5582 83.5058 44.5768 83.5992L44.6888 84.2082ZM51.2275 82.9762C51.7782 82.9762 52.2798 83.0625 52.7325 83.2352C53.1852 83.4078 53.5725 83.6552 53.8945 83.9772C54.2212 84.2992 54.4732 84.6912 54.6505 85.1532C54.8325 85.6105 54.9235 86.1262 54.9235 86.7002C54.9235 87.2788 54.8325 87.8015 54.6505 88.2682C54.4732 88.7302 54.2212 89.1245 53.8945 89.4512C53.5725 89.7732 53.1852 90.0228 52.7325 90.2002C52.2798 90.3728 51.7782 90.4592 51.2275 90.4592C50.6722 90.4592 50.1658 90.3728 49.7085 90.2002C49.2558 90.0228 48.8638 89.7732 48.5325 89.4512C48.2058 89.1245 47.9515 88.7302 47.7695 88.2682C47.5922 87.8015 47.5035 87.2788 47.5035 86.7002C47.5035 86.1262 47.5922 85.6105 47.7695 85.1532C47.9515 84.6912 48.2058 84.2992 48.5325 83.9772C48.8638 83.6552 49.2558 83.4078 49.7085 83.2352C50.1658 83.0625 50.6722 82.9762 51.2275 82.9762ZM51.2275 88.8492C51.7268 88.8492 52.0932 88.6742 52.3265 88.3242C52.5645 87.9695 52.6835 87.4328 52.6835 86.7142C52.6835 85.9955 52.5645 85.4612 52.3265 85.1112C52.0932 84.7612 51.7268 84.5862 51.2275 84.5862C50.7142 84.5862 50.3385 84.7612 50.1005 85.1112C49.8625 85.4612 49.7435 85.9955 49.7435 86.7142C49.7435 87.4328 49.8625 87.9695 50.1005 88.3242C50.3385 88.6742 50.7142 88.8492 51.2275 88.8492ZM58.2353 83.0882V90.3472H56.0653V83.0882H58.2353ZM58.4593 81.1002C58.4593 81.2728 58.4243 81.4362 58.3543 81.5902C58.2843 81.7395 58.1886 81.8725 58.0673 81.9892C57.9459 82.1012 57.8036 82.1922 57.6403 82.2622C57.4816 82.3275 57.3113 82.3602 57.1292 82.3602C56.9519 82.3602 56.7863 82.3275 56.6323 82.2622C56.4783 82.1922 56.3406 82.1012 56.2193 81.9892C56.1026 81.8725 56.0093 81.7395 55.9393 81.5902C55.8739 81.4362 55.8413 81.2728 55.8413 81.1002C55.8413 80.9228 55.8739 80.7572 55.9393 80.6032C56.0093 80.4492 56.1026 80.3138 56.2193 80.1972C56.3406 80.0805 56.4783 79.9895 56.6323 79.9242C56.7863 79.8588 56.9519 79.8262 57.1292 79.8262C57.3113 79.8262 57.4816 79.8588 57.6403 79.9242C57.8036 79.9895 57.9459 80.0805 58.0673 80.1972C58.1886 80.3138 58.2843 80.4492 58.3543 80.6032C58.4243 80.7572 58.4593 80.9228 58.4593 81.1002ZM64.1517 85.0342C63.9883 84.8522 63.811 84.7262 63.6197 84.6562C63.4283 84.5815 63.2277 84.5442 63.0177 84.5442C62.817 84.5442 62.6327 84.5838 62.4647 84.6632C62.2967 84.7425 62.1497 84.8708 62.0237 85.0482C61.9023 85.2208 61.8067 85.4472 61.7367 85.7272C61.6667 86.0072 61.6317 86.3455 61.6317 86.7422C61.6317 87.1248 61.6597 87.4468 61.7157 87.7082C61.7717 87.9695 61.8487 88.1818 61.9467 88.3452C62.0493 88.5038 62.1707 88.6182 62.3107 88.6882C62.4507 88.7582 62.607 88.7932 62.7797 88.7932C62.9383 88.7932 63.0807 88.7792 63.2067 88.7512C63.3373 88.7185 63.4563 88.6742 63.5637 88.6182C63.671 88.5622 63.7713 88.4922 63.8647 88.4082C63.9627 88.3195 64.0583 88.2192 64.1517 88.1072V85.0342ZM66.3217 79.8682V90.3472H64.9777C64.707 90.3472 64.5297 90.2258 64.4457 89.9832L64.2777 89.4302C64.133 89.5842 63.9813 89.7242 63.8227 89.8502C63.664 89.9762 63.4913 90.0858 63.3047 90.1792C63.1227 90.2678 62.9243 90.3355 62.7097 90.3822C62.4997 90.4335 62.271 90.4592 62.0237 90.4592C61.6457 90.4592 61.2957 90.3752 60.9737 90.2072C60.6517 90.0392 60.374 89.7965 60.1407 89.4792C59.9073 89.1618 59.723 88.7745 59.5877 88.3172C59.457 87.8552 59.3917 87.3302 59.3917 86.7422C59.3917 86.2008 59.4663 85.6992 59.6157 85.2372C59.765 84.7705 59.975 84.3692 60.2457 84.0332C60.521 83.6925 60.85 83.4265 61.2327 83.2352C61.6153 83.0438 62.0377 82.9482 62.4997 82.9482C62.8777 82.9482 63.195 83.0018 63.4517 83.1092C63.7083 83.2165 63.9417 83.3612 64.1517 83.5432V79.8682H66.3217Z" fill="white"/>
<path fill-rule="evenodd" clip-rule="evenodd" d="M32.0671 8.47555C31.9576 8.56233 31.9075 8.66005 31.9075 8.78653C31.9075 8.94245 33.0419 11.1408 34.1579 13.1476L34.3302 13.4575L33.8085 13.7456C30.7094 15.4574 28.2462 18.3717 27.1823 21.5853C26.7834 22.7899 26.5157 24.2817 26.5157 25.2997V25.7547H41.846H57.1762L57.1396 25.2203C56.9976 23.1522 56.6049 21.6133 55.8011 19.9751C54.5354 17.3956 52.556 15.2998 49.9527 13.7828L49.3691 13.4428L50.5737 11.1969C51.3144 9.81573 51.7782 8.88577 51.7782 8.78158C51.7782 8.57106 51.6139 8.41502 51.3465 8.37154C51.1837 8.3451 51.1146 8.36781 51.0074 8.48318C50.9334 8.56288 50.3529 9.58878 49.7175 10.763C49.0821 11.9372 48.5389 12.9215 48.5104 12.9502C48.4818 12.979 48.219 12.907 47.9223 12.7891C46.7586 12.3264 45.6058 12.0114 44.2856 11.7952C43.4723 11.662 41.097 11.61 40.1676 11.7051C38.6252 11.8629 36.7914 12.322 35.6106 12.846C35.4315 12.9254 35.2543 12.9896 35.2168 12.9885C35.1793 12.9874 34.6306 12.0188 33.9975 10.8361C33.3645 9.6534 32.7736 8.60997 32.6846 8.51732C32.4914 8.31651 32.2852 8.30253 32.0671 8.47555ZM35.5834 17.8524C36.0588 18.2381 36.2343 18.7222 36.0887 19.2463C35.8164 20.227 34.5906 20.5149 33.9277 19.7538C33.3928 19.1397 33.5457 18.1751 34.2424 17.7676C34.4435 17.65 34.5524 17.6303 34.917 17.6459C35.2974 17.6621 35.3807 17.6879 35.5834 17.8524ZM49.4432 17.7709C50.1387 18.168 50.2929 19.1396 49.758 19.7538C49.2667 20.3179 48.4661 20.343 47.9391 19.8108C47.4367 19.3036 47.4102 18.5814 47.8751 18.0626C48.1603 17.7444 48.4071 17.6349 48.84 17.6344C49.1054 17.6341 49.2682 17.671 49.4432 17.7709ZM21.0412 26.4623C20.1983 26.668 19.2795 27.4162 18.8942 28.2106C18.5082 29.0065 18.5212 28.7044 18.5205 36.9004C18.5201 41.7498 18.5418 44.49 18.5827 44.7483C18.7032 45.5098 19.1977 46.3396 19.8191 46.8229C21.1539 47.8611 22.9971 47.7977 24.2029 46.6723C24.63 46.2737 24.8985 45.8728 25.1163 45.3089L25.2738 44.901L25.2921 37.1753C25.3051 31.6258 25.291 29.3464 25.242 29.0831C25.0155 27.8689 23.948 26.7431 22.7541 26.4595C22.2753 26.3457 21.5139 26.347 21.0412 26.4623ZM60.9127 26.4602C60.0613 26.6683 59.1447 27.3988 58.7529 28.1817C58.3676 28.9515 58.3834 28.5772 58.3824 36.9365C58.3815 44.3485 58.3847 44.5579 58.5028 45.0234C58.8988 46.5844 60.3477 47.6387 61.9589 47.5383C63.1769 47.4624 64.2111 46.7952 64.7688 45.7252C65.18 44.9363 65.1645 45.2785 65.1651 36.9921C65.1656 32.0604 65.144 29.3754 65.1022 29.1137C64.9069 27.8945 63.834 26.7487 62.6166 26.4595C62.1409 26.3464 61.377 26.3468 60.9127 26.4602ZM26.6379 38.3204C26.6391 50.7958 26.6182 50.092 27.0124 50.9036C27.268 51.4298 27.9711 52.1581 28.5149 52.4598C29.1864 52.8324 29.4541 52.8778 31.1956 52.9146L32.7556 52.9476L32.7566 56.8637C32.7578 61.1581 32.7671 61.2897 33.1165 62.0013C33.9612 63.7215 36.0127 64.4085 37.7233 63.5442C38.2218 63.2923 38.8957 62.6237 39.1609 62.1178C39.5371 61.4001 39.5389 61.3764 39.5398 56.9476L39.5407 52.932H41.8428H44.1449V56.9293C44.1449 59.5779 44.1672 61.0358 44.211 61.2502C44.3937 62.1447 45.148 63.1327 45.9624 63.5442C46.9321 64.0342 48.1254 64.0365 49.1076 63.5502C49.6043 63.3043 50.289 62.6256 50.5519 62.1185C50.9341 61.3815 50.93 61.4367 50.93 56.9878V52.9465L52.49 52.9149C54.2039 52.8802 54.4777 52.8357 55.1404 52.4846C55.68 52.1987 56.3705 51.4788 56.6456 50.9153C57.0714 50.0431 57.0465 50.8247 57.0477 38.2899L57.0487 26.9761H41.8428H26.6369L26.6379 38.3204Z" fill="#C5CFD0"/>
<path d="M422.059 78.741V86H419.889V78.741H422.059ZM422.283 76.753C422.283 76.9257 422.248 77.089 422.178 77.243C422.108 77.3923 422.012 77.5253 421.891 77.642C421.769 77.754 421.627 77.845 421.464 77.915C421.305 77.9803 421.135 78.013 420.953 78.013C420.775 78.013 420.61 77.9803 420.456 77.915C420.302 77.845 420.164 77.754 420.043 77.642C419.926 77.5253 419.833 77.3923 419.763 77.243C419.697 77.089 419.665 76.9257 419.665 76.753C419.665 76.5757 419.697 76.41 419.763 76.256C419.833 76.102 419.926 75.9667 420.043 75.85C420.164 75.7333 420.302 75.6423 420.456 75.577C420.61 75.5117 420.775 75.479 420.953 75.479C421.135 75.479 421.305 75.5117 421.464 75.577C421.627 75.6423 421.769 75.7333 421.891 75.85C422.012 75.9667 422.108 76.102 422.178 76.256C422.248 76.41 422.283 76.5757 422.283 76.753ZM433.739 80.897C433.739 81.6343 433.61 82.3203 433.354 82.955C433.102 83.5897 432.745 84.1427 432.283 84.614C431.821 85.0807 431.263 85.447 430.61 85.713C429.961 85.979 429.24 86.112 428.447 86.112C427.653 86.112 426.93 85.979 426.277 85.713C425.623 85.447 425.063 85.0807 424.597 84.614C424.135 84.1427 423.775 83.5897 423.519 82.955C423.267 82.3203 423.141 81.6343 423.141 80.897C423.141 80.1597 423.267 79.4737 423.519 78.839C423.775 78.2043 424.135 77.6537 424.597 77.187C425.063 76.7203 425.623 76.354 426.277 76.088C426.93 75.822 427.653 75.689 428.447 75.689C429.24 75.689 429.961 75.8243 430.61 76.095C431.263 76.361 431.821 76.7273 432.283 77.194C432.745 77.6607 433.102 78.2113 433.354 78.846C433.61 79.4807 433.739 80.1643 433.739 80.897ZM431.317 80.897C431.317 80.393 431.251 79.9403 431.121 79.539C430.99 79.133 430.801 78.79 430.554 78.51C430.311 78.23 430.012 78.0153 429.658 77.866C429.303 77.7167 428.899 77.642 428.447 77.642C427.989 77.642 427.581 77.7167 427.222 77.866C426.867 78.0153 426.566 78.23 426.319 78.51C426.076 78.79 425.889 79.133 425.759 79.539C425.628 79.9403 425.563 80.393 425.563 80.897C425.563 81.4057 425.628 81.863 425.759 82.269C425.889 82.6703 426.076 83.011 426.319 83.291C426.566 83.571 426.867 83.7857 427.222 83.935C427.581 84.0797 427.989 84.152 428.447 84.152C428.899 84.152 429.303 84.0797 429.658 83.935C430.012 83.7857 430.311 83.571 430.554 83.291C430.801 83.011 430.99 82.6703 431.121 82.269C431.251 81.863 431.317 81.4057 431.317 80.897ZM440.766 77.873C440.696 77.985 440.621 78.069 440.542 78.125C440.467 78.181 440.369 78.209 440.248 78.209C440.141 78.209 440.024 78.1763 439.898 78.111C439.777 78.041 439.637 77.964 439.478 77.88C439.324 77.796 439.147 77.7213 438.946 77.656C438.745 77.586 438.517 77.551 438.26 77.551C437.817 77.551 437.485 77.6467 437.266 77.838C437.051 78.0247 436.944 78.279 436.944 78.601C436.944 78.8063 437.009 78.9767 437.14 79.112C437.271 79.2473 437.441 79.364 437.651 79.462C437.866 79.56 438.108 79.651 438.379 79.735C438.654 79.8143 438.934 79.9053 439.219 80.008C439.504 80.106 439.781 80.2227 440.052 80.358C440.327 80.4933 440.57 80.666 440.78 80.876C440.995 81.086 441.167 81.3427 441.298 81.646C441.429 81.9447 441.494 82.3063 441.494 82.731C441.494 83.2023 441.412 83.6433 441.249 84.054C441.086 84.4647 440.848 84.824 440.535 85.132C440.227 85.4353 439.844 85.6757 439.387 85.853C438.934 86.0257 438.419 86.112 437.84 86.112C437.523 86.112 437.198 86.0793 436.867 86.014C436.54 85.9487 436.223 85.8577 435.915 85.741C435.607 85.6197 435.318 85.4773 435.047 85.314C434.776 85.1507 434.541 84.9687 434.34 84.768L435.04 83.662C435.096 83.5827 435.168 83.5173 435.257 83.466C435.35 83.41 435.451 83.382 435.558 83.382C435.698 83.382 435.838 83.4263 435.978 83.515C436.123 83.6037 436.284 83.7017 436.461 83.809C436.643 83.9163 436.851 84.0143 437.084 84.103C437.317 84.1917 437.593 84.236 437.91 84.236C438.339 84.236 438.673 84.1427 438.911 83.956C439.149 83.7647 439.268 83.4637 439.268 83.053C439.268 82.815 439.203 82.6213 439.072 82.472C438.941 82.3227 438.769 82.199 438.554 82.101C438.344 82.003 438.104 81.9167 437.833 81.842C437.562 81.7673 437.285 81.6857 437 81.597C436.715 81.5037 436.438 81.3917 436.167 81.261C435.896 81.1257 435.654 80.9507 435.439 80.736C435.229 80.5167 435.059 80.246 434.928 79.924C434.797 79.5973 434.732 79.196 434.732 78.72C434.732 78.3373 434.809 77.964 434.963 77.6C435.117 77.236 435.343 76.9117 435.642 76.627C435.941 76.3423 436.307 76.116 436.741 75.948C437.175 75.7753 437.672 75.689 438.232 75.689C438.545 75.689 438.848 75.7147 439.142 75.766C439.441 75.8127 439.723 75.885 439.989 75.983C440.255 76.0763 440.502 76.1907 440.731 76.326C440.964 76.4567 441.172 76.606 441.354 76.774L440.766 77.873Z" fill="white"/>
<path fill-rule="evenodd" clip-rule="evenodd" d="M440.668 5.46646C435.282 6.78484 431.157 11.3981 430.729 16.5798C430.579 18.3983 430.65 18.4679 432.454 18.2476C434.888 17.9506 436.865 16.9268 438.674 15.0277C441.127 12.4506 442.435 9.37696 442.435 6.18708C442.435 4.99255 442.498 5.01818 440.668 5.46646ZM438.564 19.2103C437.87 19.3798 436.355 19.8529 435.198 20.2615C431.482 21.5738 431.35 21.5981 430.026 21.2159C429.399 21.0349 427.753 20.4981 426.369 20.023C424.222 19.2861 423.619 19.1473 422.27 19.0779C417.067 18.8105 412.146 21.7102 409.49 26.6083C408.399 28.6197 407.787 30.6774 407.467 33.4091C407.207 35.6306 407.207 35.9666 407.474 38.5351C408.157 45.106 410.526 50.9956 414.655 56.3844C417.104 59.5806 418.973 61.1103 421.074 61.6391C422.443 61.9837 423.385 61.8597 425.794 61.017C431.186 59.1311 432.8 59.103 437.387 60.8148C439.419 61.5731 439.552 61.5997 441.349 61.611C443.128 61.6221 443.255 61.5992 444.299 61.0792C445.837 60.3128 447.253 59.0051 448.964 56.7715C451.331 53.6818 452.832 51.0434 453.932 48.0412L454.364 46.8616L452.902 45.9862C448.682 43.4597 446.433 39.2976 446.697 34.5042C446.807 32.5229 447.124 31.2608 447.901 29.7089C448.832 27.8526 450.514 26.0049 452.35 24.8237C452.891 24.4754 452.752 24.1414 451.547 22.8974C448.429 19.6783 442.982 18.1314 438.564 19.2103Z" fill="#C5CFD0"/>
<path d="M43.2969 258.194V260.084H37.1509V249.885H39.5169V258.194H43.2969ZM46.4734 252.825V260.084H44.3034V252.825H46.4734ZM46.6974 250.837C46.6974 251.01 46.6624 251.173 46.5924 251.327C46.5224 251.476 46.4268 251.609 46.3054 251.726C46.1841 251.838 46.0418 251.929 45.8784 251.999C45.7198 252.064 45.5494 252.097 45.3674 252.097C45.1901 252.097 45.0244 252.064 44.8704 251.999C44.7164 251.929 44.5788 251.838 44.4574 251.726C44.3408 251.609 44.2474 251.476 44.1774 251.327C44.1121 251.173 44.0794 251.01 44.0794 250.837C44.0794 250.66 44.1121 250.494 44.1774 250.34C44.2474 250.186 44.3408 250.051 44.4574 249.934C44.5788 249.817 44.7164 249.726 44.8704 249.661C45.0244 249.596 45.1901 249.563 45.3674 249.563C45.5494 249.563 45.7198 249.596 45.8784 249.661C46.0418 249.726 46.1841 249.817 46.3054 249.934C46.4268 250.051 46.5224 250.186 46.5924 250.34C46.6624 250.494 46.6974 250.66 46.6974 250.837ZM49.9888 253.609C50.1288 253.478 50.2735 253.357 50.4228 253.245C50.5722 253.133 50.7308 253.04 50.8988 252.965C51.0715 252.886 51.2558 252.825 51.4518 252.783C51.6525 252.736 51.8695 252.713 52.1028 252.713C52.4995 252.713 52.8495 252.783 53.1528 252.923C53.4608 253.058 53.7198 253.25 53.9298 253.497C54.1398 253.74 54.2985 254.031 54.4058 254.372C54.5132 254.708 54.5668 255.074 54.5668 255.471V260.084H52.3968V255.471C52.3968 255.116 52.3152 254.841 52.1518 254.645C51.9885 254.444 51.7482 254.344 51.4308 254.344C51.1928 254.344 50.9688 254.395 50.7588 254.498C50.5535 254.596 50.3528 254.731 50.1568 254.904V260.084H47.9868V252.825H49.3308C49.6015 252.825 49.7788 252.946 49.8628 253.189L49.9888 253.609ZM62.4812 252.825V260.084H61.1372C60.8665 260.084 60.6892 259.963 60.6052 259.72L60.4792 259.3C60.3392 259.435 60.1945 259.559 60.0452 259.671C59.8959 259.778 59.7349 259.872 59.5622 259.951C59.3942 260.026 59.2099 260.084 59.0092 260.126C58.8132 260.173 58.5985 260.196 58.3652 260.196C57.9685 260.196 57.6162 260.128 57.3082 259.993C57.0049 259.853 56.7482 259.659 56.5382 259.412C56.3282 259.165 56.1695 258.873 56.0622 258.537C55.9549 258.201 55.9012 257.832 55.9012 257.431V252.825H58.0712V257.431C58.0712 257.79 58.1529 258.068 58.3162 258.264C58.4795 258.46 58.7199 258.558 59.0372 258.558C59.2752 258.558 59.4969 258.509 59.7022 258.411C59.9122 258.308 60.1152 258.171 60.3112 257.998V252.825H62.4812ZM70.8996 260.084H68.8136C68.6596 260.084 68.5336 260.047 68.4356 259.972C68.3423 259.897 68.2676 259.809 68.2116 259.706L66.9166 257.48C66.8933 257.559 66.8653 257.634 66.8326 257.704C66.7999 257.774 66.7649 257.839 66.7276 257.9L65.6636 259.706C65.5983 259.799 65.5213 259.886 65.4326 259.965C65.3439 260.044 65.2296 260.084 65.0896 260.084H63.1576L65.5936 256.332L63.2556 252.825H65.3416C65.4956 252.825 65.6076 252.846 65.6776 252.888C65.7523 252.925 65.8176 252.991 65.8736 253.084L67.1686 255.233C67.1966 255.149 67.2316 255.067 67.2736 254.988C67.3156 254.904 67.3623 254.82 67.4136 254.736L68.3376 253.119C68.4029 253.016 68.4706 252.942 68.5406 252.895C68.6153 252.848 68.7063 252.825 68.8136 252.825H70.8016L68.4636 256.234L70.8996 260.084Z" fill="white"/>
<path d="M422.391 249.885L419.241 260.084H417.099L415.181 253.763C415.144 253.665 415.109 253.558 415.076 253.441C415.043 253.32 415.011 253.194 414.978 253.063C414.945 253.194 414.913 253.32 414.88 253.441C414.847 253.558 414.812 253.665 414.775 253.763L412.829 260.084H410.687L407.537 249.885H409.525C409.73 249.885 409.901 249.932 410.036 250.025C410.176 250.118 410.267 250.242 410.309 250.396L411.709 255.716C411.751 255.884 411.793 256.068 411.835 256.269C411.877 256.465 411.919 256.67 411.961 256.885C412.045 256.446 412.148 256.057 412.269 255.716L413.921 250.396C413.963 250.265 414.052 250.149 414.187 250.046C414.327 249.939 414.495 249.885 414.691 249.885H415.391C415.596 249.885 415.762 249.934 415.888 250.032C416.014 250.125 416.11 250.247 416.175 250.396L417.813 255.716C417.934 256.043 418.037 256.414 418.121 256.829C418.158 256.619 418.196 256.423 418.233 256.241C418.275 256.054 418.317 255.879 418.359 255.716L419.759 250.396C419.796 250.261 419.885 250.142 420.025 250.039C420.165 249.936 420.333 249.885 420.529 249.885H422.391ZM426.759 255.583C426.759 255.41 426.736 255.242 426.689 255.079C426.647 254.916 426.575 254.771 426.472 254.645C426.374 254.514 426.243 254.409 426.08 254.33C425.917 254.251 425.718 254.211 425.485 254.211C425.074 254.211 424.752 254.33 424.519 254.568C424.286 254.801 424.132 255.14 424.057 255.583H426.759ZM424.029 256.843C424.099 257.45 424.283 257.891 424.582 258.166C424.881 258.437 425.266 258.572 425.737 258.572C425.989 258.572 426.206 258.542 426.388 258.481C426.57 258.42 426.731 258.353 426.871 258.278C427.016 258.203 427.146 258.136 427.263 258.075C427.384 258.014 427.51 257.984 427.641 257.984C427.814 257.984 427.944 258.047 428.033 258.173L428.663 258.95C428.439 259.207 428.196 259.417 427.935 259.58C427.678 259.739 427.412 259.865 427.137 259.958C426.866 260.047 426.593 260.107 426.318 260.14C426.047 260.177 425.788 260.196 425.541 260.196C425.032 260.196 424.554 260.114 424.106 259.951C423.663 259.783 423.273 259.536 422.937 259.209C422.606 258.882 422.342 258.476 422.146 257.991C421.955 257.506 421.859 256.941 421.859 256.297C421.859 255.812 421.941 255.352 422.104 254.918C422.272 254.484 422.51 254.104 422.818 253.777C423.131 253.45 423.506 253.191 423.945 253C424.388 252.809 424.888 252.713 425.443 252.713C425.924 252.713 426.362 252.788 426.759 252.937C427.16 253.086 427.503 253.303 427.788 253.588C428.077 253.873 428.301 254.223 428.46 254.638C428.623 255.049 428.705 255.515 428.705 256.038C428.705 256.201 428.698 256.334 428.684 256.437C428.67 256.54 428.644 256.621 428.607 256.682C428.57 256.743 428.518 256.785 428.453 256.808C428.392 256.831 428.313 256.843 428.215 256.843H424.029ZM431.961 258.11C432.124 258.287 432.302 258.413 432.493 258.488C432.684 258.563 432.878 258.6 433.074 258.6C433.279 258.6 433.468 258.563 433.641 258.488C433.814 258.409 433.961 258.283 434.082 258.11C434.208 257.933 434.306 257.702 434.376 257.417C434.446 257.128 434.481 256.773 434.481 256.353C434.481 255.989 434.453 255.681 434.397 255.429C434.346 255.172 434.266 254.965 434.159 254.806C434.056 254.643 433.926 254.526 433.767 254.456C433.613 254.381 433.436 254.344 433.235 254.344C432.969 254.344 432.738 254.402 432.542 254.519C432.346 254.636 432.152 254.806 431.961 255.03V258.11ZM431.961 253.595C432.241 253.329 432.547 253.117 432.878 252.958C433.214 252.795 433.587 252.713 433.998 252.713C434.409 252.713 434.782 252.797 435.118 252.965C435.454 253.133 435.741 253.373 435.979 253.686C436.217 253.994 436.399 254.367 436.525 254.806C436.656 255.245 436.721 255.735 436.721 256.276C436.721 256.864 436.646 257.398 436.497 257.879C436.348 258.36 436.135 258.773 435.86 259.118C435.589 259.459 435.265 259.725 434.887 259.916C434.509 260.103 434.091 260.196 433.634 260.196C433.415 260.196 433.219 260.175 433.046 260.133C432.873 260.091 432.715 260.033 432.57 259.958C432.425 259.879 432.292 259.785 432.171 259.678C432.054 259.571 431.94 259.454 431.828 259.328L431.751 259.692C431.714 259.841 431.653 259.944 431.569 260C431.485 260.056 431.373 260.084 431.233 260.084H429.791V249.605H431.961V253.595ZM442.982 254.799H446.608V259.104C446.085 259.487 445.528 259.764 444.935 259.937C444.347 260.11 443.731 260.196 443.087 260.196C442.247 260.196 441.482 260.065 440.791 259.804C440.105 259.538 439.517 259.174 439.027 258.712C438.537 258.245 438.159 257.695 437.893 257.06C437.627 256.421 437.494 255.728 437.494 254.981C437.494 254.22 437.62 253.523 437.872 252.888C438.124 252.249 438.483 251.698 438.95 251.236C439.421 250.774 439.988 250.415 440.651 250.158C441.318 249.901 442.063 249.773 442.884 249.773C443.309 249.773 443.708 249.808 444.081 249.878C444.454 249.948 444.797 250.044 445.11 250.165C445.427 250.286 445.717 250.431 445.978 250.599C446.239 250.767 446.473 250.949 446.678 251.145L445.992 252.188C445.885 252.351 445.745 252.452 445.572 252.489C445.404 252.526 445.222 252.484 445.026 252.363C444.839 252.251 444.662 252.155 444.494 252.076C444.331 251.992 444.163 251.924 443.99 251.873C443.817 251.822 443.635 251.784 443.444 251.761C443.253 251.738 443.038 251.726 442.8 251.726C442.357 251.726 441.958 251.805 441.603 251.964C441.248 252.118 440.945 252.337 440.693 252.622C440.446 252.907 440.254 253.25 440.119 253.651C439.984 254.048 439.916 254.491 439.916 254.981C439.916 255.522 439.991 256.003 440.14 256.423C440.289 256.843 440.499 257.198 440.77 257.487C441.045 257.776 441.372 257.998 441.75 258.152C442.133 258.301 442.555 258.376 443.017 258.376C443.302 258.376 443.558 258.348 443.787 258.292C444.02 258.236 444.247 258.161 444.466 258.068V256.521H443.458C443.309 256.521 443.192 256.481 443.108 256.402C443.024 256.323 442.982 256.222 442.982 256.101V254.799ZM454.345 258.194V260.084H448.199V249.885H450.565V258.194H454.345Z" fill="white"/>
<path d="M798.297 249.885V260.084H796.211V254.218C796.211 254.083 796.213 253.936 796.218 253.777C796.227 253.618 796.241 253.457 796.26 253.294L793.551 258.537C793.467 258.7 793.353 258.824 793.208 258.908C793.068 258.992 792.907 259.034 792.725 259.034H792.403C792.221 259.034 792.058 258.992 791.913 258.908C791.773 258.824 791.661 258.7 791.577 258.537L788.868 253.28C788.882 253.448 788.894 253.614 788.903 253.777C788.912 253.936 788.917 254.083 788.917 254.218V260.084H786.831V249.885H788.637C788.74 249.885 788.828 249.887 788.903 249.892C788.982 249.897 789.052 249.911 789.113 249.934C789.174 249.957 789.227 249.995 789.274 250.046C789.325 250.093 789.374 250.16 789.421 250.249L792.046 255.422C792.139 255.599 792.228 255.784 792.312 255.975C792.401 256.166 792.485 256.362 792.564 256.563C792.643 256.358 792.725 256.157 792.809 255.961C792.898 255.765 792.991 255.578 793.089 255.401L795.707 250.249C795.754 250.16 795.8 250.093 795.847 250.046C795.898 249.995 795.954 249.957 796.015 249.934C796.076 249.911 796.143 249.897 796.218 249.892C796.297 249.887 796.388 249.885 796.491 249.885H798.297ZM803.613 257.13C803.179 257.149 802.822 257.186 802.542 257.242C802.262 257.298 802.041 257.368 801.877 257.452C801.714 257.536 801.6 257.632 801.534 257.739C801.474 257.846 801.443 257.963 801.443 258.089C801.443 258.336 801.511 258.511 801.646 258.614C801.782 258.712 801.98 258.761 802.241 258.761C802.521 258.761 802.766 258.712 802.976 258.614C803.186 258.516 803.399 258.357 803.613 258.138V257.13ZM799.707 253.833C800.146 253.446 800.631 253.159 801.163 252.972C801.7 252.781 802.274 252.685 802.885 252.685C803.324 252.685 803.718 252.757 804.068 252.902C804.423 253.042 804.722 253.24 804.964 253.497C805.212 253.749 805.401 254.05 805.531 254.4C805.662 254.75 805.727 255.133 805.727 255.548V260.084H804.733C804.528 260.084 804.372 260.056 804.264 260C804.162 259.944 804.075 259.827 804.005 259.65L803.851 259.251C803.669 259.405 803.494 259.54 803.326 259.657C803.158 259.774 802.983 259.874 802.801 259.958C802.624 260.037 802.433 260.096 802.227 260.133C802.027 260.175 801.803 260.196 801.555 260.196C801.224 260.196 800.923 260.154 800.652 260.07C800.382 259.981 800.151 259.853 799.959 259.685C799.773 259.517 799.628 259.309 799.525 259.062C799.423 258.81 799.371 258.521 799.371 258.194C799.371 257.933 799.437 257.669 799.567 257.403C799.698 257.132 799.924 256.887 800.246 256.668C800.568 256.444 801.002 256.257 801.548 256.108C802.094 255.959 802.783 255.875 803.613 255.856V255.548C803.613 255.123 803.525 254.818 803.347 254.631C803.175 254.44 802.927 254.344 802.605 254.344C802.349 254.344 802.139 254.372 801.975 254.428C801.812 254.484 801.665 254.547 801.534 254.617C801.408 254.687 801.285 254.75 801.163 254.806C801.042 254.862 800.897 254.89 800.729 254.89C800.58 254.89 800.454 254.853 800.351 254.778C800.249 254.703 800.165 254.615 800.099 254.512L799.707 253.833ZM812.448 254.547C812.383 254.626 812.32 254.689 812.259 254.736C812.199 254.783 812.112 254.806 812 254.806C811.893 254.806 811.795 254.78 811.706 254.729C811.622 254.678 811.527 254.622 811.419 254.561C811.312 254.496 811.186 254.437 811.041 254.386C810.897 254.335 810.717 254.309 810.502 254.309C810.236 254.309 810.005 254.358 809.809 254.456C809.618 254.554 809.459 254.694 809.333 254.876C809.207 255.058 809.114 255.282 809.053 255.548C808.993 255.809 808.962 256.106 808.962 256.437C808.962 257.132 809.095 257.667 809.361 258.04C809.632 258.413 810.003 258.6 810.474 258.6C810.726 258.6 810.925 258.57 811.069 258.509C811.219 258.444 811.345 258.374 811.447 258.299C811.55 258.22 811.643 258.147 811.727 258.082C811.816 258.017 811.926 257.984 812.056 257.984C812.229 257.984 812.36 258.047 812.448 258.173L813.078 258.95C812.854 259.207 812.619 259.417 812.371 259.58C812.124 259.739 811.87 259.865 811.608 259.958C811.352 260.047 811.093 260.107 810.831 260.14C810.57 260.177 810.316 260.196 810.068 260.196C809.625 260.196 809.2 260.112 808.794 259.944C808.393 259.776 808.038 259.533 807.73 259.216C807.427 258.894 807.184 258.5 807.002 258.033C806.825 257.566 806.736 257.034 806.736 256.437C806.736 255.914 806.813 255.427 806.967 254.974C807.126 254.517 807.357 254.122 807.66 253.791C807.968 253.455 808.346 253.191 808.794 253C809.247 252.809 809.77 252.713 810.362 252.713C810.932 252.713 811.431 252.804 811.86 252.986C812.29 253.168 812.677 253.434 813.022 253.784L812.448 254.547ZM824.075 254.981C824.075 255.718 823.947 256.404 823.69 257.039C823.438 257.674 823.081 258.227 822.619 258.698C822.157 259.165 821.6 259.531 820.946 259.797C820.298 260.063 819.577 260.196 818.783 260.196C817.99 260.196 817.267 260.063 816.613 259.797C815.96 259.531 815.4 259.165 814.933 258.698C814.471 258.227 814.112 257.674 813.855 257.039C813.603 256.404 813.477 255.718 813.477 254.981C813.477 254.244 813.603 253.558 813.855 252.923C814.112 252.288 814.471 251.738 814.933 251.271C815.4 250.804 815.96 250.438 816.613 250.172C817.267 249.906 817.99 249.773 818.783 249.773C819.577 249.773 820.298 249.908 820.946 250.179C821.6 250.445 822.157 250.811 822.619 251.278C823.081 251.745 823.438 252.295 823.69 252.93C823.947 253.565 824.075 254.248 824.075 254.981ZM821.653 254.981C821.653 254.477 821.588 254.024 821.457 253.623C821.327 253.217 821.138 252.874 820.89 252.594C820.648 252.314 820.349 252.099 819.994 251.95C819.64 251.801 819.236 251.726 818.783 251.726C818.326 251.726 817.918 251.801 817.558 251.95C817.204 252.099 816.903 252.314 816.655 252.594C816.413 252.874 816.226 253.217 816.095 253.623C815.965 254.024 815.899 254.477 815.899 254.981C815.899 255.49 815.965 255.947 816.095 256.353C816.226 256.754 816.413 257.095 816.655 257.375C816.903 257.655 817.204 257.87 817.558 258.019C817.918 258.164 818.326 258.236 818.783 258.236C819.236 258.236 819.64 258.164 819.994 258.019C820.349 257.87 820.648 257.655 820.89 257.375C821.138 257.095 821.327 256.754 821.457 256.353C821.588 255.947 821.653 255.49 821.653 254.981ZM831.103 251.957C831.033 252.069 830.958 252.153 830.879 252.209C830.804 252.265 830.706 252.293 830.585 252.293C830.478 252.293 830.361 252.26 830.235 252.195C830.114 252.125 829.974 252.048 829.815 251.964C829.661 251.88 829.484 251.805 829.283 251.74C829.082 251.67 828.854 251.635 828.597 251.635C828.154 251.635 827.822 251.731 827.603 251.922C827.388 252.109 827.281 252.363 827.281 252.685C827.281 252.89 827.346 253.061 827.477 253.196C827.608 253.331 827.778 253.448 827.988 253.546C828.203 253.644 828.445 253.735 828.716 253.819C828.991 253.898 829.271 253.989 829.556 254.092C829.841 254.19 830.118 254.307 830.389 254.442C830.664 254.577 830.907 254.75 831.117 254.96C831.332 255.17 831.504 255.427 831.635 255.73C831.766 256.029 831.831 256.39 831.831 256.815C831.831 257.286 831.749 257.727 831.586 258.138C831.423 258.549 831.185 258.908 830.872 259.216C830.564 259.519 830.181 259.76 829.724 259.937C829.271 260.11 828.756 260.196 828.177 260.196C827.86 260.196 827.535 260.163 827.204 260.098C826.877 260.033 826.56 259.942 826.252 259.825C825.944 259.704 825.655 259.561 825.384 259.398C825.113 259.235 824.878 259.053 824.677 258.852L825.377 257.746C825.433 257.667 825.505 257.601 825.594 257.55C825.687 257.494 825.788 257.466 825.895 257.466C826.035 257.466 826.175 257.51 826.315 257.599C826.46 257.688 826.621 257.786 826.798 257.893C826.98 258 827.188 258.098 827.421 258.187C827.654 258.276 827.93 258.32 828.247 258.32C828.676 258.32 829.01 258.227 829.248 258.04C829.486 257.849 829.605 257.548 829.605 257.137C829.605 256.899 829.54 256.705 829.409 256.556C829.278 256.407 829.106 256.283 828.891 256.185C828.681 256.087 828.441 256.001 828.17 255.926C827.899 255.851 827.622 255.77 827.337 255.681C827.052 255.588 826.775 255.476 826.504 255.345C826.233 255.21 825.991 255.035 825.776 254.82C825.566 254.601 825.396 254.33 825.265 254.008C825.134 253.681 825.069 253.28 825.069 252.804C825.069 252.421 825.146 252.048 825.3 251.684C825.454 251.32 825.68 250.996 825.979 250.711C826.278 250.426 826.644 250.2 827.078 250.032C827.512 249.859 828.009 249.773 828.569 249.773C828.882 249.773 829.185 249.799 829.479 249.85C829.778 249.897 830.06 249.969 830.326 250.067C830.592 250.16 830.839 250.275 831.068 250.41C831.301 250.541 831.509 250.69 831.691 250.858L831.103 251.957Z" fill="white"/>
<path d="M793.842 74.885L790.692 85.084H788.55L786.632 78.763C786.595 78.665 786.56 78.5577 786.527 78.441C786.495 78.3197 786.462 78.1937 786.429 78.063C786.397 78.1937 786.364 78.3197 786.331 78.441C786.299 78.5577 786.264 78.665 786.226 78.763L784.28 85.084H782.138L778.988 74.885H780.976C781.182 74.885 781.352 74.9317 781.487 75.025C781.627 75.1183 781.718 75.242 781.76 75.396L783.16 80.716C783.202 80.884 783.244 81.0683 783.286 81.269C783.328 81.465 783.37 81.6703 783.412 81.885C783.496 81.4463 783.599 81.0567 783.72 80.716L785.372 75.396C785.414 75.2653 785.503 75.1487 785.638 75.046C785.778 74.9387 785.946 74.885 786.142 74.885H786.842C787.048 74.885 787.213 74.934 787.339 75.032C787.465 75.1253 787.561 75.2467 787.626 75.396L789.264 80.716C789.386 81.0427 789.488 81.4137 789.572 81.829C789.61 81.619 789.647 81.423 789.684 81.241C789.726 81.0543 789.768 80.8793 789.81 80.716L791.21 75.396C791.248 75.2607 791.336 75.1417 791.476 75.039C791.616 74.9363 791.784 74.885 791.98 74.885H793.842ZM796.735 77.825V85.084H794.565V77.825H796.735ZM796.959 75.837C796.959 76.0097 796.924 76.173 796.854 76.327C796.784 76.4763 796.688 76.6093 796.567 76.726C796.445 76.838 796.303 76.929 796.14 76.999C795.981 77.0643 795.811 77.097 795.629 77.097C795.451 77.097 795.286 77.0643 795.132 76.999C794.978 76.929 794.84 76.838 794.719 76.726C794.602 76.6093 794.509 76.4763 794.439 76.327C794.373 76.173 794.341 76.0097 794.341 75.837C794.341 75.6597 794.373 75.494 794.439 75.34C794.509 75.186 794.602 75.0507 794.719 74.934C794.84 74.8173 794.978 74.7263 795.132 74.661C795.286 74.5957 795.451 74.563 795.629 74.563C795.811 74.563 795.981 74.5957 796.14 74.661C796.303 74.7263 796.445 74.8173 796.567 74.934C796.688 75.0507 796.784 75.186 796.854 75.34C796.924 75.494 796.959 75.6597 796.959 75.837ZM800.25 78.609C800.39 78.4783 800.535 78.357 800.684 78.245C800.833 78.133 800.992 78.0397 801.16 77.965C801.333 77.8857 801.517 77.825 801.713 77.783C801.914 77.7363 802.131 77.713 802.364 77.713C802.761 77.713 803.111 77.783 803.414 77.923C803.722 78.0583 803.981 78.2497 804.191 78.497C804.401 78.7397 804.56 79.0313 804.667 79.372C804.774 79.708 804.828 80.0743 804.828 80.471V85.084H802.658V80.471C802.658 80.1163 802.576 79.841 802.413 79.645C802.25 79.4443 802.009 79.344 801.692 79.344C801.454 79.344 801.23 79.3953 801.02 79.498C800.815 79.596 800.614 79.7313 800.418 79.904V85.084H798.248V77.825H799.592C799.863 77.825 800.04 77.9463 800.124 78.189L800.25 78.609ZM810.635 79.771C810.472 79.589 810.295 79.463 810.103 79.393C809.912 79.3183 809.711 79.281 809.501 79.281C809.301 79.281 809.116 79.3207 808.948 79.4C808.78 79.4793 808.633 79.6077 808.507 79.785C808.386 79.9577 808.29 80.184 808.22 80.464C808.15 80.744 808.115 81.0823 808.115 81.479C808.115 81.8617 808.143 82.1837 808.199 82.445C808.255 82.7063 808.332 82.9187 808.43 83.082C808.533 83.2407 808.654 83.355 808.794 83.425C808.934 83.495 809.091 83.53 809.263 83.53C809.422 83.53 809.564 83.516 809.69 83.488C809.821 83.4553 809.94 83.411 810.047 83.355C810.155 83.299 810.255 83.229 810.348 83.145C810.446 83.0563 810.542 82.956 810.635 82.844V79.771ZM812.805 74.605V85.084H811.461C811.191 85.084 811.013 84.9627 810.929 84.72L810.761 84.167C810.617 84.321 810.465 84.461 810.306 84.587C810.148 84.713 809.975 84.8227 809.788 84.916C809.606 85.0047 809.408 85.0723 809.193 85.119C808.983 85.1703 808.755 85.196 808.507 85.196C808.129 85.196 807.779 85.112 807.457 84.944C807.135 84.776 806.858 84.5333 806.624 84.216C806.391 83.8987 806.207 83.5113 806.071 83.054C805.941 82.592 805.875 82.067 805.875 81.479C805.875 80.9377 805.95 80.436 806.099 79.974C806.249 79.5073 806.459 79.106 806.729 78.77C807.005 78.4293 807.334 78.1633 807.716 77.972C808.099 77.7807 808.521 77.685 808.983 77.685C809.361 77.685 809.679 77.7387 809.935 77.846C810.192 77.9533 810.425 78.098 810.635 78.28V74.605H812.805ZM817.618 77.713C818.168 77.713 818.67 77.7993 819.123 77.972C819.575 78.1447 819.963 78.392 820.285 78.714C820.611 79.036 820.863 79.428 821.041 79.89C821.223 80.3473 821.314 80.863 821.314 81.437C821.314 82.0157 821.223 82.5383 821.041 83.005C820.863 83.467 820.611 83.8613 820.285 84.188C819.963 84.51 819.575 84.7597 819.123 84.937C818.67 85.1097 818.168 85.196 817.618 85.196C817.062 85.196 816.556 85.1097 816.099 84.937C815.646 84.7597 815.254 84.51 814.923 84.188C814.596 83.8613 814.342 83.467 814.16 83.005C813.982 82.5383 813.894 82.0157 813.894 81.437C813.894 80.863 813.982 80.3473 814.16 79.89C814.342 79.428 814.596 79.036 814.923 78.714C815.254 78.392 815.646 78.1447 816.099 77.972C816.556 77.7993 817.062 77.713 817.618 77.713ZM817.618 83.586C818.117 83.586 818.483 83.411 818.717 83.061C818.955 82.7063 819.074 82.1697 819.074 81.451C819.074 80.7323 818.955 80.198 818.717 79.848C818.483 79.498 818.117 79.323 817.618 79.323C817.104 79.323 816.729 79.498 816.491 79.848C816.253 80.198 816.134 80.7323 816.134 81.451C816.134 82.1697 816.253 82.7063 816.491 83.061C816.729 83.411 817.104 83.586 817.618 83.586ZM832.952 77.825L830.698 85.084H828.934C828.84 85.084 828.761 85.056 828.696 85C828.63 84.944 828.579 84.8507 828.542 84.72L827.506 81.101C827.454 80.9377 827.408 80.7767 827.366 80.618C827.328 80.4593 827.293 80.2983 827.261 80.135C827.228 80.2983 827.191 80.4617 827.149 80.625C827.111 80.7883 827.067 80.9517 827.016 81.115L825.966 84.72C825.896 84.9627 825.742 85.084 825.504 85.084H823.824L821.57 77.825H823.306C823.46 77.825 823.588 77.8623 823.691 77.937C823.798 78.007 823.87 78.0957 823.908 78.203L824.636 81.458C824.696 81.7053 824.75 81.9457 824.797 82.179C824.843 82.4077 824.885 82.6387 824.923 82.872C824.983 82.6387 825.046 82.4077 825.112 82.179C825.182 81.9457 825.256 81.7053 825.336 81.458L826.246 78.196C826.283 78.0887 826.353 78 826.456 77.93C826.558 77.8553 826.68 77.818 826.82 77.818H827.786C827.94 77.818 828.068 77.8553 828.171 77.93C828.278 78 828.35 78.0887 828.388 78.196L829.256 81.458C829.326 81.7053 829.393 81.9457 829.459 82.179C829.529 82.4123 829.592 82.648 829.648 82.886C829.685 82.6527 829.729 82.4193 829.781 82.186C829.832 81.9527 829.89 81.71 829.956 81.458L830.726 78.203C830.763 78.0957 830.833 78.007 830.936 77.937C831.038 77.8623 831.16 77.825 831.3 77.825H832.952ZM838.23 79.414C838.174 79.5027 838.114 79.5657 838.048 79.603C837.988 79.6403 837.908 79.659 837.81 79.659C837.708 79.659 837.605 79.638 837.502 79.596C837.4 79.5493 837.288 79.5003 837.166 79.449C837.05 79.3977 836.917 79.351 836.767 79.309C836.618 79.2623 836.448 79.239 836.256 79.239C835.981 79.239 835.769 79.2927 835.619 79.4C835.475 79.5027 835.402 79.6473 835.402 79.834C835.402 79.9693 835.449 80.0813 835.542 80.17C835.64 80.2587 835.769 80.338 835.927 80.408C836.086 80.4733 836.266 80.5363 836.466 80.597C836.667 80.6577 836.872 80.7253 837.082 80.8C837.292 80.8747 837.498 80.9633 837.698 81.066C837.899 81.164 838.079 81.2877 838.237 81.437C838.396 81.5817 838.522 81.759 838.615 81.969C838.713 82.179 838.762 82.431 838.762 82.725C838.762 83.0843 838.697 83.4157 838.566 83.719C838.436 84.0223 838.24 84.2837 837.978 84.503C837.722 84.7223 837.402 84.8927 837.019 85.014C836.641 85.1353 836.205 85.196 835.71 85.196C835.463 85.196 835.216 85.1727 834.968 85.126C834.721 85.0793 834.481 85.0163 834.247 84.937C834.019 84.8577 833.806 84.7643 833.61 84.657C833.414 84.545 833.246 84.426 833.106 84.3L833.61 83.502C833.666 83.4087 833.736 83.3363 833.82 83.285C833.909 83.229 834.021 83.201 834.156 83.201C834.282 83.201 834.394 83.229 834.492 83.285C834.595 83.341 834.705 83.4017 834.821 83.467C834.938 83.5323 835.073 83.593 835.227 83.649C835.386 83.705 835.584 83.733 835.822 83.733C835.99 83.733 836.133 83.7167 836.249 83.684C836.366 83.6467 836.459 83.5977 836.529 83.537C836.599 83.4763 836.651 83.4087 836.683 83.334C836.716 83.2593 836.732 83.1823 836.732 83.103C836.732 82.9583 836.683 82.8393 836.585 82.746C836.487 82.6527 836.359 82.5733 836.2 82.508C836.042 82.438 835.86 82.375 835.654 82.319C835.454 82.2583 835.248 82.1907 835.038 82.116C834.828 82.0413 834.621 81.9527 834.415 81.85C834.215 81.7427 834.035 81.6097 833.876 81.451C833.718 81.2877 833.589 81.0893 833.491 80.856C833.393 80.6227 833.344 80.3403 833.344 80.009C833.344 79.701 833.403 79.4093 833.519 79.134C833.641 78.854 833.82 78.609 834.058 78.399C834.296 78.189 834.595 78.0233 834.954 77.902C835.314 77.776 835.734 77.713 836.214 77.713C836.476 77.713 836.728 77.7363 836.97 77.783C837.218 77.8297 837.449 77.895 837.663 77.979C837.878 78.063 838.074 78.1633 838.251 78.28C838.429 78.392 838.585 78.5157 838.72 78.651L838.23 79.414Z" fill="white"/>
<path fill-rule="evenodd" clip-rule="evenodd" d="M822.519 2.43857L806.704 4.82472V16.6351V28.4451H822.625H838.546V14.1962C838.546 6.35934 838.498 -0.0288252 838.44 9.78283e-05C838.381 0.0285955 831.217 1.12639 822.519 2.43857ZM790.57 7.20364C784.849 8.09473 780.026 8.83652 779.85 8.85183C779.675 8.86714 779.532 13.3774 779.532 18.8749V28.8704H787.108C791.275 28.8704 796.72 28.7458 799.208 28.5931L803.732 28.3158V16.8963V5.47676L802.352 5.52993C801.593 5.55885 796.291 6.31213 790.57 7.20364ZM779.532 41.4098V51.3972L780.487 51.6014C781.512 51.82 802.882 54.817 803.413 54.8165C803.588 54.8161 803.732 49.5525 803.732 43.1193V31.4225H791.632H779.532V41.4098ZM806.704 43.3239V55.2253L807.659 55.4277C808.184 55.5388 815.014 56.5043 822.837 57.5732C830.66 58.642 837.394 59.5893 837.803 59.6786C838.499 59.8304 838.546 58.9419 838.546 45.6313V31.4225H822.625H806.704V43.3239Z" fill="#C5CFD0"/>
<path d="M52.7479 180.644C52.7479 180.883 52.5076 180.883 52.5076 180.883H52.2672C52.0268 180.883 52.0268 180.644 51.7865 180.405C51.7865 180.405 51.5461 180.166 51.5461 179.927C51.5461 179.688 51.5461 179.688 51.7865 179.688L52.2672 179.927C52.5076 180.166 52.7479 180.405 52.7479 180.644ZM48.4213 178.254C48.4213 177.058 47.9406 176.341 47.2195 176.341C47.2195 176.341 47.2195 176.58 46.9791 176.58V177.058H47.7002C47.7002 177.536 47.9406 177.775 47.9406 178.254H48.4213ZM56.8342 177.058C57.3149 177.058 57.5553 177.536 57.7957 178.254H58.2764C58.036 178.014 58.036 177.775 58.036 177.536C58.036 177.297 58.036 177.058 57.7957 176.819C57.5553 176.58 57.3149 176.341 57.0746 176.341C57.0746 176.341 56.8342 176.58 56.5938 176.58C56.5938 176.819 56.8342 176.819 56.8342 177.058ZM49.6232 180.883C49.3828 180.883 49.3828 180.883 49.3828 180.644C49.3828 180.405 49.3828 180.166 49.6232 179.927C50.1039 179.927 50.3443 179.688 50.3443 179.688C50.5846 179.688 50.5846 179.927 50.5846 179.927C50.5846 180.166 50.3443 180.405 49.8635 180.883H49.6232ZM46.9791 180.644C46.0176 180.166 45.7773 179.449 45.7773 178.254C45.7773 177.536 45.7773 177.058 46.258 176.58C46.4984 176.102 46.9791 175.863 47.4598 175.863C47.9406 175.863 48.1809 176.102 48.6617 176.58C48.902 177.297 49.1424 178.014 49.1424 178.732V178.971V179.21H49.3828V178.971C49.6232 178.971 49.6232 178.493 49.6232 177.536C49.6232 176.819 49.6232 176.102 49.1424 175.385C48.6617 174.667 48.1809 174.189 47.2195 174.189C46.4984 174.189 45.7773 174.667 45.5369 175.385C45.0562 176.341 44.96 177.058 44.96 178.254C44.96 179.21 45.2965 180.166 46.258 181.123C46.4984 180.883 46.7387 180.883 46.9791 180.644ZM77.0251 214.355C77.2655 214.355 77.2655 214.26 77.2655 214.044C77.2655 213.518 77.0251 212.897 76.304 212.203C75.5829 211.486 74.381 211.032 72.9388 210.841C72.6985 210.817 72.4581 210.817 72.4581 210.817C72.2177 210.769 72.2177 210.769 71.9774 210.769C71.737 210.745 71.2563 210.697 71.0159 210.649C71.737 208.426 71.9774 206.465 71.9774 204.744C71.9774 202.353 71.4966 200.68 70.5352 199.245C69.5737 197.811 68.6122 197.093 67.4104 196.854C67.17 197.093 67.17 197.093 67.17 197.332C68.3718 197.811 69.5737 198.767 70.2948 200.201C71.0159 201.875 71.2563 203.31 71.2563 204.983C71.2563 206.322 71.0159 208.306 70.0544 210.841C69.093 211.223 68.1315 212.108 67.4104 213.495C67.4104 213.71 67.4104 213.829 67.6507 213.829C67.6507 213.829 67.8911 213.614 68.1315 213.208C68.6122 212.801 68.8526 212.395 69.3333 211.988C70.0544 211.582 70.5352 211.367 71.2563 211.367C72.4581 211.367 73.6599 211.534 74.381 211.869C75.3425 212.18 75.8233 212.514 76.0636 212.897C76.304 213.255 76.5444 213.59 76.7847 213.901C76.7847 214.212 77.0251 214.355 77.0251 214.355ZM54.9112 179.688C54.6709 179.449 54.6709 178.971 54.6709 178.493C54.6709 177.536 54.6709 177.058 55.1516 176.341C55.6323 175.863 56.1131 175.624 56.5938 175.624C57.3149 175.624 57.7957 176.102 58.2764 176.58C58.5168 177.297 58.7571 177.775 58.7571 178.493C58.7571 179.688 58.2764 180.405 57.3149 180.644C57.3149 180.644 57.5553 180.883 57.7957 180.883C58.2764 180.883 58.5168 181.123 58.9975 181.362C59.2379 179.927 59.4782 178.971 59.4782 177.775C59.4782 176.341 59.2379 175.385 58.7571 174.667C58.036 173.95 57.3149 173.711 56.3535 173.711C55.6323 173.711 54.9112 173.95 54.1901 174.428C53.7094 175.145 53.469 175.624 53.469 176.341C53.469 177.536 53.7094 178.493 54.1901 179.449C54.4305 179.449 54.6709 179.688 54.9112 179.688ZM57.7957 183.513C54.6709 185.665 52.2672 186.621 50.3443 186.621C48.6617 186.621 46.9791 185.904 45.5369 184.709C45.7773 185.187 46.0176 185.665 46.258 185.904L47.7002 187.339C48.6617 188.295 49.8635 188.773 51.0654 188.773C52.7479 188.773 54.6709 187.817 57.0746 186.143L59.2379 184.709C59.7186 184.231 60.1993 183.752 60.1993 183.035C60.1993 182.796 60.1993 182.557 59.959 182.557C59.7186 182.079 58.5168 181.362 56.1131 180.644C53.9498 179.688 52.2672 179.21 51.3057 179.21C50.5846 179.21 49.3828 179.688 47.7002 180.644C46.258 181.601 45.2965 182.557 45.2965 183.513C45.2965 183.513 45.5369 183.752 45.7773 184.231C47.2195 185.426 48.6617 186.143 50.1039 186.143C52.0268 186.143 54.4305 185.187 57.5553 182.796V183.274C57.7957 183.274 57.7957 183.513 57.7957 183.513ZM63.3241 231.808C64.2856 233.606 65.9682 234.51 67.8911 234.51C68.3718 234.51 68.8526 234.438 69.3333 234.295C69.8141 234.199 70.2948 234.032 70.5352 233.841C70.7755 233.673 71.0159 233.506 71.2563 233.315C71.737 233.147 71.737 233.028 71.9774 232.908L76.0636 229.394C77.0251 228.631 77.9866 227.964 79.1884 227.385C80.1499 226.811 81.1113 226.429 81.5921 226.214C82.3132 226.023 82.7939 225.736 83.2747 225.353C83.515 224.994 83.7554 224.54 83.7554 223.966C83.7554 223.273 83.2747 222.747 82.7939 222.365C82.3132 221.982 81.8325 221.719 81.3517 221.552C80.871 221.384 80.3902 221.002 79.6691 220.356C79.1884 219.735 78.7077 218.874 78.4673 217.75L78.2269 216.364C77.9866 215.718 77.9866 215.24 77.7462 214.977C77.7462 214.905 77.7462 214.881 77.5058 214.881C77.2655 214.881 76.7847 215.096 76.5444 215.503C76.0636 215.909 75.5829 216.364 75.1021 216.842C74.8618 217.32 74.1407 217.75 73.6599 218.157C72.9388 218.563 72.2177 218.778 71.737 218.778C69.8141 218.778 68.8526 218.252 68.1315 217.224C67.6507 216.459 67.4104 215.575 67.17 214.57C66.6893 214.164 66.4489 213.949 65.9682 213.949C64.7663 213.949 64.2856 215.192 64.2856 217.702V218.491V221.265V223.393V224.421V225.138C64.2856 225.353 64.0452 225.831 64.0452 226.572C63.8049 227.314 63.8049 228.155 63.8049 229.107L63.3241 231.761V231.801V231.808ZM28.4708 230.536C30.7062 230.862 33.2781 231.557 36.1866 232.619C39.095 233.671 40.8738 234.221 41.5228 234.221C43.2053 234.221 44.5995 233.48 45.7532 232.047C45.9936 231.584 45.9936 231.038 45.9936 230.412C45.9936 228.153 44.6235 225.296 41.8833 221.829L40.2488 219.653C39.9123 219.199 39.5037 218.506 38.9749 217.573C38.4701 216.641 38.0134 215.924 37.6528 215.422C37.3404 214.872 36.8356 214.322 36.1866 213.772C35.5616 213.222 34.8405 212.863 34.0473 212.672C33.0378 212.863 32.3407 213.198 32.0042 213.652C31.6677 214.107 31.4754 214.609 31.4273 215.135C31.3552 215.637 31.211 215.971 30.9706 216.139C30.7302 216.282 30.3216 216.402 29.7688 216.521C29.6486 216.521 29.4322 216.521 29.1198 216.545H28.4708C27.1968 216.545 26.3315 216.689 25.8748 216.928C25.2739 217.621 24.9614 218.41 24.9614 219.247C24.9614 219.629 25.0575 220.275 25.2498 221.183C25.4421 222.068 25.5383 222.785 25.5383 223.287C25.5383 224.268 25.2498 225.248 24.6489 226.228C24.048 227.256 23.7355 228.021 23.7355 228.566C23.9759 229.494 25.5623 230.147 28.4708 230.529V230.536ZM36.475 208.797C36.475 207.147 36.9077 205.33 37.7971 203.178C38.6624 201.026 39.5277 199.592 40.369 198.635C40.3209 198.396 40.2007 198.396 40.0084 198.396L39.7681 198.157C39.071 198.875 38.2297 200.548 37.2202 202.939C36.2106 205.091 35.6818 207.075 35.6818 208.534C35.6818 209.609 35.9462 210.542 36.427 211.355C36.9558 212.144 38.2297 213.291 40.2488 214.75L42.7967 216.399C45.5129 218.742 46.9551 220.368 46.9551 221.325C46.9551 221.827 46.7147 222.329 45.9936 222.879C45.5129 223.452 44.8639 223.739 44.311 223.739C44.2629 223.739 44.2389 223.787 44.2389 223.907C44.2389 223.931 44.4793 224.409 44.984 225.341C45.9936 226.704 48.1569 227.373 51.0413 227.373C56.3294 227.373 60.4157 225.222 63.5405 220.918C63.5405 219.723 63.5405 218.981 63.3001 218.671V217.786C63.3001 216.232 63.5405 215.061 64.0212 214.295C64.5019 213.53 64.9827 213.172 65.7038 213.172C66.1845 213.172 66.6652 213.339 67.146 213.698C67.3863 211.857 67.3863 210.255 67.3863 208.82C67.3863 206.645 67.3863 204.852 66.9056 203.178C66.6652 201.744 66.1845 200.548 65.7038 199.592C65.223 198.875 64.7423 198.157 64.2616 197.44C63.7808 196.723 63.5405 196.006 63.0597 195.288C62.8193 194.332 62.579 193.615 62.579 192.419C61.8579 191.224 61.3771 190.028 60.656 188.833C60.1753 187.638 59.6946 186.442 59.2138 185.486L57.0505 187.159C54.6468 188.833 52.7239 189.55 51.0413 189.55C49.5991 189.55 48.3973 189.311 47.6762 188.355L46.234 187.159C46.234 187.877 45.9936 188.833 45.5129 189.789L43.9985 192.658C43.3255 194.332 42.965 195.288 42.8928 196.006C42.7967 196.484 42.7246 196.962 42.6765 196.962L40.8738 200.548C38.9268 204.134 37.9413 207.458 37.9413 210.207C37.9413 210.757 37.9893 211.331 38.0855 211.905C37.0038 211.163 36.475 210.135 36.475 208.797ZM53.6854 231.414C50.5606 231.414 48.1569 231.835 46.4743 232.669V232.597C45.2725 234.032 43.9264 234.773 42.0516 234.773C40.8738 234.773 39.0229 234.319 36.5231 233.41C33.9992 232.55 31.7638 231.89 29.8168 231.454C29.6245 231.4 29.1919 231.318 28.4948 231.208C27.8218 231.101 27.1968 230.991 26.644 230.881C26.1392 230.773 25.5623 230.611 24.9374 230.391C24.3364 230.202 23.8557 229.955 23.4952 229.657C23.1635 229.355 23 229.016 23 228.636C23 228.253 23.0817 227.844 23.2452 227.409C23.399 227.146 23.5673 226.883 23.7355 226.644C23.9038 226.381 24.048 226.142 24.1442 225.903C24.2884 225.688 24.3845 225.473 24.4807 225.234C24.5768 225.018 24.673 224.803 24.721 224.54C24.7691 224.301 24.8172 224.062 24.8172 223.823C24.8172 223.584 24.721 222.867 24.5287 221.599C24.3364 220.356 24.2403 219.567 24.2403 219.233C24.2403 218.181 24.4807 217.344 25.0095 216.746C25.5383 216.148 26.0431 215.838 26.5719 215.838H29.3361C29.5524 215.838 29.8889 215.718 30.3937 215.431C30.562 215.049 30.7062 214.738 30.8023 214.451C30.9225 214.164 30.9706 213.949 31.0187 213.853C31.0667 213.71 31.1148 213.566 31.1629 213.447C31.259 213.279 31.3792 213.088 31.5475 212.897C31.3552 212.658 31.259 212.347 31.259 211.964C31.259 211.701 31.259 211.462 31.3071 211.319C31.3071 210.458 31.7157 209.239 32.5811 207.637L33.4224 206.131C34.1194 204.84 34.6482 203.883 35.0328 202.927C35.4414 201.971 35.8741 200.536 36.3548 198.623C36.7394 196.95 37.6528 195.276 39.095 193.603L40.8978 191.451C42.1477 190.016 42.965 188.821 43.4217 187.865C43.8784 186.908 44.1187 185.713 44.1187 184.757C44.1187 184.278 43.9985 182.844 43.7341 180.453C43.4938 178.062 43.3736 175.671 43.3736 173.52C43.3736 171.846 43.5178 170.651 43.8303 169.455C44.1428 168.26 44.6956 167.064 45.5129 166.108C46.234 165.152 47.1954 164.195 48.6376 163.717C50.0799 163.239 51.7624 163 53.6854 163C54.4065 163 55.1276 163 55.8487 163.239C56.5698 163.239 57.5313 163.478 58.7331 163.956C59.6946 164.435 60.656 164.913 61.3771 165.63C62.3386 166.347 63.0597 167.543 63.7808 168.738C64.2616 170.173 64.7423 171.607 64.9827 173.52C65.223 174.715 65.223 175.911 65.4634 177.584C65.4634 179.019 65.7038 179.975 65.7038 180.692C65.9441 181.409 65.9441 182.366 66.1845 183.561C66.4249 184.518 66.6652 185.474 67.146 186.191C67.6267 187.147 68.1074 188.104 68.8285 189.06C69.5496 190.256 70.5111 191.451 71.4726 192.885C73.6359 195.276 75.3185 197.906 76.2799 200.536C77.4818 202.927 78.2029 206.035 78.2029 209.358C78.2029 211.008 77.9625 212.61 77.4818 214.164C77.9625 214.164 78.2029 214.355 78.4433 214.69C78.6836 215.025 78.924 215.742 79.1644 216.866L79.4047 218.635C79.6451 219.161 79.8855 219.663 80.6066 220.093C81.0873 220.524 81.568 220.882 82.2891 221.169C82.7699 221.408 83.491 221.743 83.9717 222.173C84.4525 222.651 84.6928 223.154 84.6928 223.679C84.6928 224.492 84.4525 225.09 83.9717 225.52C83.491 225.999 83.0103 226.333 82.2891 226.548C81.8084 226.788 80.8469 227.266 79.4047 227.94C78.2029 228.648 77.0011 229.506 75.7992 230.522L73.3955 232.557C72.4341 233.489 71.4726 234.159 70.7515 234.565C70.0304 234.995 69.0689 235.211 68.1074 235.211L66.4249 235.019C64.5019 234.517 63.3001 233.561 62.579 232.102C58.7331 231.639 55.6083 231.409 53.6854 231.409" fill="#C5CFD0"/>
<path d="M494.264 216.893V217.525H493.347V219.721H492.659V217.525H491.743V216.893H494.264Z" fill="#C5CFD0"/>
<path d="M497.014 219.721V217.571L496.441 219.721H495.868L495.181 217.571V219.721H494.493V216.893H495.639L496.098 218.778L496.556 216.893H497.702V219.721H497.014Z" fill="#C5CFD0"/>
<path d="M465.528 219.56C464.501 219.997 463.474 220.215 462.436 220.215C460.792 220.215 459.309 219.928 457.996 219.353C456.684 218.778 455.577 217.985 454.675 216.973C453.774 215.961 453.078 214.777 452.598 213.409C452.119 212.041 451.879 210.569 451.879 208.994C451.879 207.373 452.119 205.879 452.598 204.488C453.078 203.096 453.762 201.889 454.664 200.866C455.566 199.831 456.672 199.027 457.985 198.44C459.297 197.854 460.769 197.555 462.424 197.555C463.531 197.555 464.593 197.727 465.62 198.061C466.647 198.394 467.582 198.889 468.416 199.532C469.249 200.176 469.933 200.981 470.47 201.935C471.006 202.889 471.337 203.982 471.463 205.212H466.966C466.681 204.005 466.145 203.096 465.346 202.487C464.547 201.878 463.577 201.579 462.424 201.579C461.363 201.579 460.461 201.786 459.72 202.2C458.978 202.614 458.373 203.165 457.916 203.867C457.46 204.568 457.118 205.361 456.912 206.247C456.707 207.132 456.593 208.052 456.593 209.006C456.593 209.914 456.695 210.799 456.912 211.662C457.118 212.524 457.46 213.294 457.916 213.984C458.373 214.674 458.978 215.226 459.72 215.639C460.461 216.053 461.363 216.26 462.424 216.26C463.988 216.26 465.197 215.858 466.053 215.065C466.909 214.271 467.4 213.122 467.548 211.604H462.801V208.029H471.805V219.721H468.804L468.324 217.272C467.491 218.364 466.555 219.123 465.528 219.56Z" fill="#C5CFD0"/>
<path d="M479.463 198.095V215.697H489.928V219.709H474.75V198.095H479.463Z" fill="#C5CFD0"/>
<path d="M457.186 222.4C449.985 226.814 439.189 229.321 427.149 229.321C405.455 229.321 387.88 220.227 387.88 208.994C387.88 197.773 405.466 188.668 427.149 188.668C439.235 188.668 450.065 191.232 457.266 195.669C449.414 188.231 435.309 183.011 419.195 183C394.499 183 374.482 194.635 374.482 208.994C374.482 223.354 394.499 235 419.184 235C435.241 235 449.3 229.792 457.186 222.4Z" fill="#C5CFD0"/>
<path d="M399.316 214.455L395.155 196.405H391.225L397.39 219.939H401.08L406.272 201.452L411.395 219.939H415.096L421.48 196.405H417.32L413.16 214.455L408.14 196.405H404.335L399.316 214.455Z" fill="#C5CFD0"/>
<path d="M431.863 206.315C431.29 205.499 430.568 204.878 429.72 204.453C428.849 204.016 427.84 203.798 426.717 203.798C425.456 203.798 424.322 204.028 423.336 204.476C422.408 204.901 421.617 205.534 420.976 206.35C419.795 207.856 419.176 209.983 419.176 212.501C419.176 213.616 419.337 214.674 419.646 215.616C419.956 216.571 420.425 217.41 421.021 218.111C422.282 219.583 424.081 220.364 426.224 220.364C427.347 220.364 428.264 220.25 429.032 220.008C429.697 219.801 430.144 219.525 430.51 219.284C430.98 218.973 431.404 218.594 431.794 218.157C432.115 217.778 432.401 217.364 432.654 216.915C433.089 216.111 433.307 215.352 433.353 214.961L433.387 214.697H430.327L430.316 214.915C430.235 215.915 428.929 217.697 426.603 217.697C423.279 217.697 422.488 215.283 422.431 213.156H433.57V212.915C433.57 211.546 433.433 210.293 433.158 209.201C432.848 208.063 432.424 207.097 431.863 206.315ZM426.362 206.557C428.826 206.557 430.144 207.89 430.384 210.627H422.408C422.534 208.408 424.288 206.557 426.362 206.557Z" fill="#C5CFD0"/>
<path d="M448.962 208.569C448.664 207.615 448.228 206.775 447.667 206.074C447.082 205.35 446.372 204.786 445.558 204.396C444.71 203.993 443.759 203.786 442.727 203.786C441.776 203.798 440.916 204.005 440.16 204.407C439.53 204.729 438.968 205.189 438.487 205.764V198.544H435.438V219.928H438.338V218.468C438.59 218.801 438.922 219.157 439.358 219.468C440.183 220.066 441.203 220.365 442.383 220.365C443.655 220.365 444.802 220.077 445.764 219.514C446.624 219.008 447.357 218.284 447.93 217.364C448.434 216.559 448.813 215.605 449.065 214.536C449.282 213.616 449.397 212.604 449.397 211.616C449.409 210.546 449.26 209.512 448.962 208.569ZM446.223 212.041C446.223 213.719 445.89 215.122 445.248 216.111C444.572 217.157 443.587 217.686 442.326 217.686C440.504 217.686 438.372 216.41 438.372 212.8C438.372 211.075 438.59 209.742 439.026 208.73C439.656 207.27 440.722 206.568 442.269 206.568C443.919 206.568 445.031 207.212 445.65 208.557C446.154 209.661 446.223 211.006 446.223 212.041Z" fill="#C5CFD0"/>
<path d="M811.437 195.692V195.212L809.944 195.314C809.521 195.341 809.204 195.431 808.99 195.583C808.777 195.736 808.67 195.948 808.67 196.219C808.67 196.483 808.775 196.694 808.987 196.85C809.198 197.007 809.482 197.084 809.836 197.084C810.062 197.084 810.274 197.049 810.469 196.98C810.665 196.911 810.836 196.814 810.979 196.691C811.123 196.569 811.235 196.423 811.315 196.253C811.397 196.083 811.437 195.896 811.437 195.692ZM808.5 176.351C792.234 176.351 779.351 189.234 779.351 205.5C779.351 221.767 792.234 234.649 808.5 234.649C824.766 234.649 837.649 221.767 837.649 205.5C837.649 189.234 824.767 176.351 808.5 176.351ZM814.158 193.628C814.296 193.242 814.49 192.911 814.741 192.635C814.993 192.36 815.295 192.148 815.649 191.999C816.003 191.85 816.397 191.776 816.832 191.776C817.223 191.776 817.577 191.835 817.892 191.951C818.208 192.068 818.478 192.225 818.704 192.423C818.93 192.621 819.11 192.852 819.242 193.116C819.374 193.38 819.453 193.659 819.48 193.953H818.309C818.28 193.791 818.226 193.64 818.151 193.501C818.075 193.362 817.975 193.241 817.851 193.138C817.726 193.036 817.58 192.956 817.413 192.898C817.245 192.839 817.056 192.811 816.844 192.811C816.596 192.811 816.369 192.861 816.168 192.961C815.966 193.061 815.793 193.203 815.65 193.385C815.507 193.568 815.396 193.791 815.317 194.053C815.237 194.315 815.198 194.606 815.198 194.926C815.198 195.258 815.237 195.556 815.317 195.817C815.396 196.08 815.508 196.3 815.654 196.482C815.799 196.663 815.975 196.802 816.178 196.897C816.382 196.993 816.607 197.042 816.851 197.042C817.252 197.042 817.577 196.948 817.83 196.76C818.083 196.571 818.246 196.296 818.322 195.934H819.494C819.46 196.254 819.371 196.546 819.228 196.81C819.085 197.074 818.899 197.299 818.672 197.486C818.443 197.673 818.174 197.817 817.865 197.919C817.556 198.02 817.216 198.072 816.847 198.072C816.409 198.072 816.014 197.999 815.659 197.854C815.305 197.709 815 197.5 814.747 197.229C814.494 196.958 814.299 196.628 814.161 196.239C814.023 195.849 813.955 195.413 813.955 194.925C813.952 194.449 814.021 194.016 814.158 193.628ZM797.508 191.856H798.679V192.897H798.702C798.773 192.724 798.867 192.568 798.983 192.433C799.098 192.297 799.23 192.182 799.382 192.085C799.532 191.988 799.699 191.915 799.879 191.864C800.06 191.814 800.251 191.788 800.451 191.788C800.88 191.788 801.244 191.891 801.539 192.096C801.836 192.301 802.046 192.596 802.17 192.981H802.2C802.278 192.795 802.382 192.63 802.51 192.484C802.638 192.338 802.785 192.211 802.951 192.107C803.117 192.003 803.299 191.925 803.498 191.87C803.696 191.815 803.904 191.788 804.123 191.788C804.425 191.788 804.699 191.836 804.946 191.933C805.193 192.03 805.404 192.165 805.579 192.34C805.755 192.516 805.89 192.729 805.984 192.979C806.078 193.23 806.126 193.508 806.126 193.814V198.002H804.904V194.108C804.904 193.704 804.8 193.391 804.592 193.171C804.385 192.95 804.089 192.839 803.704 192.839C803.516 192.839 803.343 192.873 803.186 192.939C803.03 193.005 802.893 193.097 802.781 193.217C802.667 193.335 802.579 193.478 802.516 193.644C802.451 193.81 802.419 193.991 802.419 194.188V198.002H801.213V194.006C801.213 193.829 801.185 193.669 801.131 193.526C801.076 193.383 800.998 193.26 800.896 193.158C800.795 193.055 800.67 192.978 800.525 192.923C800.379 192.869 800.216 192.84 800.035 192.84C799.847 192.84 799.672 192.876 799.511 192.946C799.351 193.016 799.213 193.113 799.098 193.237C798.983 193.362 798.893 193.508 798.83 193.678C798.768 193.846 798.667 194.032 798.667 194.231V198H797.508V191.856ZM800.167 221.27C794.794 221.27 791.424 217.536 791.424 211.577C791.424 205.618 794.794 201.872 800.167 201.872C805.54 201.872 808.897 205.618 808.897 211.577C808.897 217.535 805.54 221.27 800.167 221.27ZM810.115 197.986C809.917 198.037 809.715 198.062 809.507 198.062C809.201 198.062 808.921 198.018 808.667 197.931C808.411 197.844 808.194 197.722 808.011 197.563C807.828 197.404 807.685 197.213 807.584 196.989C807.481 196.764 807.431 196.514 807.431 196.239C807.431 195.699 807.632 195.278 808.034 194.974C808.435 194.671 809.017 194.494 809.78 194.445L811.437 194.349V193.874C811.437 193.52 811.325 193.249 811.1 193.065C810.875 192.881 810.558 192.788 810.146 192.788C809.981 192.788 809.825 192.81 809.681 192.85C809.538 192.892 809.412 192.951 809.302 193.029C809.192 193.106 809.101 193.199 809.031 193.307C808.959 193.414 808.91 193.534 808.883 193.666H807.734C807.741 193.395 807.809 193.144 807.935 192.913C808.062 192.683 808.233 192.484 808.451 192.314C808.668 192.144 808.923 192.012 809.218 191.917C809.513 191.823 809.833 191.776 810.18 191.776C810.554 191.776 810.892 191.822 811.196 191.917C811.499 192.013 811.759 192.146 811.974 192.322C812.189 192.498 812.355 192.708 812.471 192.956C812.588 193.203 812.647 193.48 812.647 193.784V198H811.477V196.976H811.447C811.36 197.142 811.25 197.292 811.117 197.426C810.982 197.559 810.832 197.674 810.665 197.768C810.496 197.862 810.313 197.935 810.115 197.986ZM817.846 221.27C813.748 221.27 810.962 219.124 810.769 215.753H813.436C813.644 217.679 815.505 218.955 818.055 218.955C820.501 218.955 822.258 217.679 822.258 215.936C822.258 214.427 821.191 213.516 818.72 212.892L816.312 212.294C812.85 211.435 811.277 209.861 811.277 207.272C811.277 204.084 814.061 201.872 818.03 201.872C821.907 201.872 824.613 204.097 824.716 207.297H822.076C821.893 205.371 820.32 204.187 817.976 204.187C815.647 204.187 814.035 205.384 814.035 207.114C814.035 208.48 815.049 209.287 817.521 209.911L819.551 210.418C823.416 211.355 825.003 212.878 825.003 215.61C825.002 219.097 822.244 221.27 817.846 221.27ZM800.167 204.264C796.485 204.264 794.183 207.088 794.183 211.576C794.183 216.051 796.485 218.875 800.167 218.875C803.836 218.875 806.151 216.051 806.151 211.576C806.153 207.088 803.836 204.264 800.167 204.264Z" fill="#C5CFD0"/>
</svg>
