<svg width="159" height="76" viewBox="0 0 159 76" fill="none" xmlns="http://www.w3.org/2000/svg">
<path fill-rule="evenodd" clip-rule="evenodd" d="M34.1528 1.57775C34.5075 4.70287 34.3447 26.1444 33.921 32.1394C33.7028 35.2248 33.5237 38.4971 33.5233 39.4113L33.5221 41.0737L37.7675 42.9663C43.9675 45.7305 47.5704 47.2173 54.0812 49.6989C57.2755 50.9165 60.3956 52.1254 61.0149 52.3853C63.0037 53.22 62.425 52.685 59.8427 51.3012C58.4625 50.5619 56.654 49.5818 55.8235 49.1235C50.0191 45.9193 44.1373 42.8213 40.6486 41.1305L36.5653 39.1516L36.4531 37.9829C36.2452 35.8178 35.8168 27.5071 35.6096 21.621C35.4063 15.8425 35.605 3.66997 35.9077 3.3654C35.9938 3.27868 38.0795 4.42261 40.5426 5.90733C43.006 7.39206 48.5233 10.6121 52.8035 13.0631C57.0838 15.5139 60.7048 17.6005 60.85 17.7C61.0284 17.8225 61.2033 20.3827 61.3894 25.5946C61.5408 29.837 61.7606 34.6755 61.8777 36.3467C62.4129 43.9809 62.8255 51.578 62.7437 52.2843C62.6942 52.7104 62.7151 53.0592 62.7904 53.0592C63.1324 53.0592 64.3408 32.1132 64.572 22.1801L64.7223 15.727L62.4217 14.437C61.1564 13.7274 58.6577 12.3836 56.8689 11.451C55.0802 10.5181 52.5712 9.20074 51.2936 8.52313C46.3201 5.88583 34.4218 0 34.0641 0C34.0144 0 34.0543 0.710105 34.1528 1.57775ZM27.7144 8.1426C26.7562 8.6199 25.0836 9.41532 23.9975 9.91038C18.1106 12.5944 12.2635 15.3937 6.48159 18.2961L0 21.5497L0.138919 33.1554C0.279465 44.8888 0.684609 57.8083 0.963377 59.4415L1.11531 60.3309L2.27684 59.7021C4.1483 58.6888 13.2814 54.1033 15.0537 53.2871C18.4688 51.7142 26.7933 48.2913 29.8556 47.2009C30.6338 46.924 30.7363 46.7884 30.894 45.8275C31.2062 43.923 31.0641 29.0538 30.6626 21.621C30.2863 14.6558 29.7899 7.64076 29.6821 7.76885C29.6537 7.80274 29.5083 10.0918 29.3592 12.8557C29.21 15.6197 28.9252 20.6685 28.7264 24.0753C28.5277 27.4821 28.3614 33.6617 28.3572 37.8078L28.3493 45.3462L27.6255 45.7814C26.3241 46.5638 22.914 48.3605 19.1811 50.2312C14.1812 52.7364 3.13173 57.6202 2.92776 57.4149C2.88362 57.3708 2.95099 54.6108 3.07714 51.2816C3.20351 47.9526 3.37913 40.3706 3.46788 34.4328L3.62886 23.6366L6.08899 22.1715C9.48857 20.1471 21.4052 12.6601 28.179 8.29289C28.6262 8.00446 29.2012 7.65431 29.4567 7.5143C30.609 6.8839 29.2804 7.36307 27.7144 8.1426ZM33.9867 48.9905C33.6673 49.1718 31.5243 50.201 29.2244 51.2774C21.8038 54.7508 8.7122 61.436 5.56444 63.3597L4.9026 63.764L5.6806 63.9342C7.37342 64.3045 15.5745 67.1456 19.3851 68.682C21.6024 69.576 25.8153 71.4261 28.7468 72.793C31.6783 74.1599 34.3003 75.3349 34.5737 75.4039C35.4858 75.6343 41.3297 73.4049 49.6674 69.6459C50.1785 69.4157 52.3215 68.4232 54.4297 67.4406C56.5379 66.4579 59.0749 65.2764 60.0675 64.8149C61.0602 64.3535 61.84 63.9436 61.8006 63.9038C61.7613 63.8641 60.8969 64.0936 59.8796 64.4138C58.8626 64.7338 55.5738 65.7361 52.5712 66.6407C44.2317 69.1536 39.6589 70.6718 36.5918 71.9462C35.0123 72.6023 34.8416 72.628 34.0364 72.3316C33.5618 72.157 30.8738 71.3169 28.0629 70.4647C20.5903 68.1997 9.49298 64.002 9.65815 63.503C9.693 63.3975 11.7575 62.4937 14.246 61.4944C16.7344 60.4952 19.1365 59.5065 19.5837 59.2975C20.0309 59.0883 22.7489 57.9018 25.6237 56.6604C28.4985 55.419 31.7275 53.9958 32.7996 53.4974C33.8715 52.9993 34.8855 52.5917 35.053 52.5917C35.2203 52.5917 36.3295 53.019 37.5178 53.5412C40.2086 54.7237 44.2653 56.3386 47.4605 57.4993C48.8021 57.9867 50.1611 58.4969 50.4805 58.6332C50.7999 58.7692 52.1066 59.2643 53.3843 59.7332C55.5115 60.5137 57.619 61.3254 60.8915 62.625C61.5708 62.8948 62.0612 63.0091 61.9813 62.8789C61.9014 62.7489 61.7371 62.6426 61.6163 62.6426C61.4955 62.6426 60.1166 61.9226 58.552 61.0426C54.8783 58.9761 53.7167 58.3279 51.8743 57.3165C51.0438 56.8605 49.1621 55.8124 47.6928 54.9873C43.9729 52.8986 35.3534 48.6137 34.9231 48.6394C34.7275 48.6513 34.3061 48.8093 33.9867 48.9905Z" fill="#C5CFD0"/>
<path d="M95.9362 36.5619C96.0388 36.5619 96.1298 36.6015 96.2092 36.6809L96.9512 37.4859C96.5405 37.9945 96.0342 38.3842 95.4322 38.6549C94.8348 38.9255 94.1162 39.0609 93.2762 39.0609C92.5248 39.0609 91.8482 38.9325 91.2462 38.6759C90.6488 38.4192 90.1378 38.0622 89.7132 37.6049C89.2885 37.1475 88.9618 36.6015 88.7332 35.9669C88.5092 35.3322 88.3972 34.6392 88.3972 33.8879C88.3972 33.1272 88.5185 32.4319 88.7612 31.8019C89.0038 31.1672 89.3445 30.6212 89.7832 30.1639C90.2265 29.7065 90.7538 29.3519 91.3652 29.0999C91.9765 28.8432 92.6532 28.7149 93.3952 28.7149C94.1325 28.7149 94.7858 28.8362 95.3552 29.0789C95.9292 29.3215 96.4168 29.6389 96.8182 30.0309L96.1882 30.9059C96.1508 30.9619 96.1018 31.0109 96.0412 31.0529C95.9852 31.0949 95.9058 31.1159 95.8032 31.1159C95.7332 31.1159 95.6608 31.0972 95.5862 31.0599C95.5115 31.0179 95.4298 30.9689 95.3412 30.9129C95.2525 30.8522 95.1498 30.7869 95.0332 30.7169C94.9165 30.6469 94.7812 30.5839 94.6272 30.5279C94.4732 30.4672 94.2935 30.4182 94.0882 30.3809C93.8875 30.3389 93.6542 30.3179 93.3882 30.3179C92.9355 30.3179 92.5202 30.3995 92.1422 30.5629C91.7688 30.7215 91.4468 30.9549 91.1762 31.2629C90.9055 31.5662 90.6955 31.9395 90.5462 32.3829C90.3968 32.8215 90.3222 33.3232 90.3222 33.8879C90.3222 34.4572 90.4015 34.9635 90.5602 35.4069C90.7235 35.8502 90.9428 36.2235 91.2182 36.5269C91.4935 36.8302 91.8178 37.0635 92.1912 37.2269C92.5645 37.3855 92.9658 37.4649 93.3952 37.4649C93.6518 37.4649 93.8828 37.4509 94.0882 37.4229C94.2982 37.3949 94.4895 37.3505 94.6622 37.2899C94.8395 37.2292 95.0052 37.1522 95.1592 37.0589C95.3178 36.9609 95.4742 36.8419 95.6282 36.7019C95.6748 36.6599 95.7238 36.6272 95.7752 36.6039C95.8265 36.5759 95.8802 36.5619 95.9362 36.5619ZM102.315 37.4299C102.679 37.4299 103.003 37.3692 103.288 37.2479C103.577 37.1265 103.82 36.9562 104.016 36.7369C104.212 36.5175 104.361 36.2515 104.464 35.9389C104.571 35.6262 104.625 35.2762 104.625 34.8889V28.8269H106.508V34.8889C106.508 35.4909 106.41 36.0485 106.214 36.5619C106.023 37.0705 105.745 37.5115 105.381 37.8849C105.022 38.2535 104.583 38.5429 104.065 38.7529C103.547 38.9582 102.964 39.0609 102.315 39.0609C101.662 39.0609 101.076 38.9582 100.558 38.7529C100.04 38.5429 99.599 38.2535 99.235 37.8849C98.8757 37.5115 98.598 37.0705 98.402 36.5619C98.2107 36.0485 98.115 35.4909 98.115 34.8889V28.8269H99.998V34.8819C99.998 35.2692 100.049 35.6192 100.152 35.9319C100.259 36.2445 100.411 36.5129 100.607 36.7369C100.808 36.9562 101.05 37.1265 101.335 37.2479C101.624 37.3692 101.951 37.4299 102.315 37.4299ZM112.419 37.4789C112.769 37.4789 113.063 37.4369 113.301 37.3529C113.539 37.2689 113.728 37.1569 113.868 37.0169C114.012 36.8769 114.115 36.7135 114.176 36.5269C114.241 36.3402 114.274 36.1419 114.274 35.9319C114.274 35.7125 114.239 35.5165 114.169 35.3439C114.099 35.1665 113.989 35.0172 113.84 34.8959C113.69 34.7699 113.497 34.6742 113.259 34.6089C113.025 34.5435 112.743 34.5109 112.412 34.5109H110.515V37.4789H112.419ZM110.515 30.2829V33.2089H112.013C112.657 33.2089 113.142 33.0922 113.469 32.8589C113.8 32.6255 113.966 32.2545 113.966 31.7459C113.966 31.2185 113.816 30.8429 113.518 30.6189C113.219 30.3949 112.752 30.2829 112.118 30.2829H110.515ZM112.118 28.8269C112.78 28.8269 113.347 28.8899 113.819 29.0159C114.29 29.1419 114.675 29.3215 114.974 29.5549C115.277 29.7882 115.499 30.0705 115.639 30.4019C115.779 30.7332 115.849 31.1065 115.849 31.5219C115.849 31.7599 115.814 31.9885 115.744 32.2079C115.674 32.4225 115.564 32.6255 115.415 32.8169C115.27 33.0035 115.083 33.1739 114.855 33.3279C114.631 33.4819 114.362 33.6125 114.05 33.7199C115.44 34.0325 116.136 34.7839 116.136 35.9739C116.136 36.4032 116.054 36.7999 115.891 37.1639C115.727 37.5279 115.489 37.8429 115.177 38.1089C114.864 38.3702 114.479 38.5755 114.022 38.7249C113.564 38.8742 113.042 38.9489 112.454 38.9489H108.632V28.8269H112.118ZM119.737 30.3249V33.1319H123.279V34.5809H119.737V37.4439H124.231V38.9489H117.847V28.8269H124.231V30.3249H119.737ZM127.789 30.3249V33.1319H131.331V34.5809H127.789V37.4439H132.283V38.9489H125.899V28.8269H132.283V30.3249H127.789ZM142.177 38.9489H140.301C140.17 38.9489 140.065 38.9162 139.986 38.8509C139.911 38.7855 139.851 38.7109 139.804 38.6269L137.459 34.7419C137.422 34.8585 137.377 34.9589 137.326 35.0429L135.079 38.6269C135.023 38.7062 134.958 38.7809 134.883 38.8509C134.813 38.9162 134.72 38.9489 134.603 38.9489H132.846L136.206 33.7409L132.979 28.8269H134.855C134.986 28.8269 135.079 28.8455 135.135 28.8829C135.196 28.9155 135.252 28.9715 135.303 29.0509L137.606 32.7609C137.653 32.6442 137.709 32.5275 137.774 32.4109L139.888 29.0859C139.939 28.9972 139.995 28.9319 140.056 28.8899C140.117 28.8479 140.194 28.8269 140.287 28.8269H142.086L138.831 33.6639L142.177 38.9489ZM100.146 50.8739V54.9689C99.6323 55.3469 99.0839 55.6245 98.5006 55.8019C97.9219 55.9745 97.3013 56.0609 96.6386 56.0609C95.8126 56.0609 95.0636 55.9325 94.3916 55.6759C93.7243 55.4192 93.1526 55.0622 92.6766 54.6049C92.2053 54.1475 91.8413 53.6015 91.5846 52.9669C91.3279 52.3322 91.1996 51.6392 91.1996 50.8879C91.1996 50.1272 91.3233 49.4295 91.5706 48.7949C91.8179 48.1602 92.1679 47.6142 92.6206 47.1569C93.0779 46.6995 93.6309 46.3449 94.2796 46.0929C94.9283 45.8409 95.6563 45.7149 96.4636 45.7149C96.8743 45.7149 97.2569 45.7475 97.6116 45.8129C97.9709 45.8782 98.3023 45.9692 98.6056 46.0859C98.9136 46.1979 99.1936 46.3355 99.4456 46.4989C99.6976 46.6622 99.9286 46.8419 100.139 47.0379L99.5996 47.8919C99.5156 48.0272 99.4059 48.1112 99.2706 48.1439C99.1353 48.1719 98.9883 48.1369 98.8296 48.0389C98.6756 47.9502 98.5216 47.8615 98.3676 47.7729C98.2136 47.6842 98.0409 47.6072 97.8496 47.5419C97.6629 47.4765 97.4506 47.4229 97.2126 47.3809C96.9793 47.3389 96.7086 47.3179 96.4006 47.3179C95.9013 47.3179 95.4486 47.4019 95.0426 47.5699C94.6413 47.7379 94.2983 47.9782 94.0136 48.2909C93.7289 48.6035 93.5096 48.9792 93.3556 49.4179C93.2016 49.8565 93.1246 50.3465 93.1246 50.8879C93.1246 51.4665 93.2063 51.9845 93.3696 52.4419C93.5376 52.8945 93.7709 53.2795 94.0696 53.5969C94.3729 53.9095 94.7369 54.1499 95.1616 54.3179C95.5863 54.4812 96.0599 54.5629 96.5826 54.5629C96.9559 54.5629 97.2896 54.5232 97.5836 54.4439C97.8776 54.3645 98.1646 54.2572 98.4446 54.1219V52.2879H97.1706C97.0493 52.2879 96.9536 52.2552 96.8836 52.1899C96.8183 52.1199 96.7856 52.0359 96.7856 51.9379V50.8739H100.146ZM107.185 52.1269L105.953 48.7599C105.892 48.6105 105.829 48.4332 105.764 48.2279C105.698 48.0225 105.633 47.8009 105.568 47.5629C105.507 47.8009 105.444 48.0249 105.379 48.2349C105.313 48.4402 105.25 48.6199 105.19 48.7739L103.965 52.1269H107.185ZM110.51 55.9489H109.054C108.89 55.9489 108.757 55.9092 108.655 55.8299C108.552 55.7459 108.475 55.6432 108.424 55.5219L107.668 53.4569H103.475L102.719 55.5219C102.681 55.6292 102.609 55.7272 102.502 55.8159C102.394 55.9045 102.261 55.9489 102.103 55.9489H100.633L104.616 45.8269H106.534L110.51 55.9489ZM122.533 45.8269V55.9489H120.874V49.4109C120.874 49.1495 120.888 48.8672 120.916 48.5639L117.857 54.3109C117.713 54.5862 117.491 54.7239 117.192 54.7239H116.926C116.628 54.7239 116.406 54.5862 116.261 54.3109L113.167 48.5429C113.181 48.6969 113.193 48.8485 113.202 48.9979C113.212 49.1472 113.216 49.2849 113.216 49.4109V55.9489H111.557V45.8269H112.978C113.062 45.8269 113.135 45.8292 113.195 45.8339C113.256 45.8385 113.31 45.8502 113.356 45.8689C113.408 45.8875 113.452 45.9179 113.489 45.9599C113.531 46.0019 113.571 46.0579 113.608 46.1279L116.639 51.7489C116.719 51.8982 116.791 52.0522 116.856 52.2109C116.926 52.3695 116.994 52.5329 117.059 52.7009C117.125 52.5282 117.192 52.3625 117.262 52.2039C117.332 52.0405 117.407 51.8842 117.486 51.7349L120.475 46.1279C120.513 46.0579 120.552 46.0019 120.594 45.9599C120.636 45.9179 120.681 45.8875 120.727 45.8689C120.779 45.8502 120.835 45.8385 120.895 45.8339C120.956 45.8292 121.028 45.8269 121.112 45.8269H122.533ZM126.682 47.3249V50.1319H130.224V51.5809H126.682V54.4439H131.176V55.9489H124.792V45.8269H131.176V47.3249H126.682ZM138.235 47.6679C138.179 47.7659 138.118 47.8382 138.053 47.8849C137.992 47.9269 137.915 47.9479 137.822 47.9479C137.724 47.9479 137.616 47.9129 137.5 47.8429C137.388 47.7682 137.252 47.6865 137.094 47.5979C136.935 47.5092 136.748 47.4299 136.534 47.3599C136.324 47.2852 136.074 47.2479 135.785 47.2479C135.523 47.2479 135.295 47.2805 135.099 47.3459C134.903 47.4065 134.737 47.4929 134.602 47.6049C134.471 47.7169 134.373 47.8522 134.308 48.0109C134.242 48.1649 134.21 48.3352 134.21 48.5219C134.21 48.7599 134.275 48.9582 134.406 49.1169C134.541 49.2755 134.718 49.4109 134.938 49.5229C135.157 49.6349 135.407 49.7352 135.687 49.8239C135.967 49.9125 136.254 50.0082 136.548 50.1109C136.842 50.2089 137.129 50.3255 137.409 50.4609C137.689 50.5915 137.938 50.7595 138.158 50.9649C138.377 51.1655 138.552 51.4129 138.683 51.7069C138.818 52.0009 138.886 52.3579 138.886 52.7779C138.886 53.2352 138.806 53.6645 138.648 54.0659C138.494 54.4625 138.265 54.8102 137.962 55.1089C137.663 55.4029 137.297 55.6362 136.863 55.8089C136.429 55.9769 135.932 56.0609 135.372 56.0609C135.05 56.0609 134.732 56.0282 134.42 55.9629C134.107 55.9022 133.806 55.8135 133.517 55.6969C133.232 55.5802 132.964 55.4402 132.712 55.2769C132.46 55.1135 132.236 54.9315 132.04 54.7309L132.593 53.8279C132.639 53.7625 132.7 53.7089 132.775 53.6669C132.849 53.6202 132.929 53.5969 133.013 53.5969C133.129 53.5969 133.255 53.6459 133.391 53.7439C133.526 53.8372 133.687 53.9422 133.874 54.0589C134.06 54.1755 134.277 54.2829 134.525 54.3809C134.777 54.4742 135.078 54.5209 135.428 54.5209C135.964 54.5209 136.38 54.3949 136.674 54.1429C136.968 53.8862 137.115 53.5199 137.115 53.0439C137.115 52.7779 137.047 52.5609 136.912 52.3929C136.781 52.2249 136.606 52.0849 136.387 51.9729C136.167 51.8562 135.918 51.7582 135.638 51.6789C135.358 51.5995 135.073 51.5132 134.784 51.4199C134.494 51.3265 134.21 51.2145 133.93 51.0839C133.65 50.9532 133.4 50.7829 133.181 50.5729C132.961 50.3629 132.784 50.1015 132.649 49.7889C132.518 49.4715 132.453 49.0819 132.453 48.6199C132.453 48.2512 132.525 47.8919 132.67 47.5419C132.819 47.1919 133.034 46.8815 133.314 46.6109C133.594 46.3402 133.939 46.1232 134.35 45.9599C134.76 45.7965 135.232 45.7149 135.764 45.7149C136.361 45.7149 136.912 45.8082 137.416 45.9949C137.92 46.1815 138.349 46.4429 138.704 46.7789L138.235 47.6679Z" fill="#C5CFD0"/>
</svg>
